<!-- <svg width="63" height="62" viewBox="0 0 63 62" fill="none" xmlns="http://www.w3.org/2000/svg">
<rect width="63" height="62" fill="#F5F5F5"/>
<g clip-path="url(#clip0_0_1)">
<rect width="1440" height="9332" transform="translate(-135 -85)" fill="white"/>
<rect width="1440" height="77" transform="translate(-135 -8)" fill="#E8E5E0"/>
<path fill-rule="evenodd" clip-rule="evenodd" d="M31.1697 2.56299C14.799 2.56299 2 14.7707 2 31.3972C2 48.0237 14.9478 59.9318 31.1697 59.9318C47.5405 59.9318 60.1831 47.5188 60.1831 30.8923C60.1831 14.4156 47.6149 2.56299 31.1697 2.56299Z" stroke="black" stroke-width="4"/>
<path fill-rule="evenodd" clip-rule="evenodd" d="M18.995 12.3637C17.7133 13.2983 17.5606 13.7305 16.9725 15.1763C15.6461 18.4373 18.0648 24.6805 19.2409 27.9327C20.5488 31.5489 22.2966 37.2975 24.2079 40.3972C27.3732 45.5306 29.5767 37.7774 30.099 35.6112C30.3572 34.5402 31.2753 32.3459 31.3023 31.5516C28.9566 31.5298 28.1471 44.2338 24.8387 36.3837C23.2476 32.6082 17.8236 19.7719 20.6667 16.1036C20.7773 15.9609 20.7973 15.763 20.9796 15.6935C21.0802 15.4409 21.5985 14.9035 21.8891 14.8898C22.3967 14.2599 23.7207 14.0393 24.5125 14.0739C24.7247 13.4845 30.5207 14.9482 30.8637 14.8866C30.9819 13.5182 23.0385 11.3221 19.6741 12.0896C19.4283 12.1456 19.2636 12.2997 18.995 12.3637ZM40.1492 12.7089C39.9265 12.9332 37.9731 13.2409 37.397 13.5606C36.3319 14.1517 35.1855 14.6031 34.1748 15.2559C34.0312 15.3486 33.8376 15.5355 33.6423 15.5219C33.4799 15.8013 32.0646 16.4854 31.9309 16.5094C31.8573 16.7326 31.3697 16.9286 31.113 16.9764C30.8895 17.3035 29.6224 17.9202 29.2316 17.8887C28.9863 18.1331 28.5267 18.1519 28.2218 18.3184C28.1743 18.2902 28.1312 18.148 28.0144 18.3295C25.0222 18.4517 25.7035 17.9405 24.2244 17.803C24.4031 21.2432 32.5488 18.7073 33.2985 18.217C33.5449 18.0558 34.085 17.8102 34.3993 17.789C34.6239 17.5163 36.4243 16.8726 36.8418 16.8116C36.99 16.4516 40.0017 15.6912 40.9017 16.8825C42.3988 18.8639 41.1061 23.6774 40.6904 26.0908C40.0627 29.7344 38.3791 34.23 37.531 37.9313C37.1616 39.543 38.1532 39.1016 38.583 38.4002C39.2883 37.2492 42.5943 27.8733 43.0317 25.7429C43.3974 23.9619 44.4172 21.7195 44.6428 19.8786C44.9502 17.3697 45.9135 13.5287 42.9162 12.838C42.7703 12.8044 42.7289 12.7863 42.6877 12.7381C42.1502 12.8097 41.4372 12.6258 40.9506 12.6292C40.6826 12.6312 40.4098 12.7099 40.1492 12.7089ZM38.7736 41.6072C38.6768 41.1916 39.4383 40.4966 39.6605 40.011C39.9927 39.2849 39.9296 38.1332 39.6339 37.6347C39.2965 37.7654 39.729 39.9048 34.838 40.9941C33.8775 41.208 30.7187 41.1268 30.3605 41.355C31.5793 42.5515 36.0104 42.6038 37.9556 41.7333C38.1806 41.6326 38.1349 41.5967 38.4264 41.5275C38.2442 43.8017 33.7 44.1758 32.1589 44.2325C31.7142 44.2488 31.3624 44.1606 30.9709 44.1778C31.0406 44.9322 36.0228 45.8751 38.1029 44.005C39.0089 43.1906 38.7522 42.4551 38.7736 41.6072ZM31.4211 50.942C31.7117 51.9185 38.0892 51.9459 37.3528 48.2415C37.2898 47.9246 37.2875 47.9126 37.0661 47.8097C36.5112 48.7772 36.8229 50.189 32.4302 50.8309C32.1533 50.8714 31.6435 50.8546 31.4211 50.942ZM34.407 47.3602C33.9642 47.8421 32.5926 47.7209 31.9578 47.8708C32.1336 48.7169 37.3236 48.6472 37.8635 46.2548C37.9474 45.8829 37.9683 45.0344 37.636 44.6924L37.4657 44.7525C37.0204 46.413 36.1117 46.7959 34.685 47.3284C34.5255 47.377 34.6205 47.3892 34.407 47.3602ZM32.0822 54.5587C32.6094 55.3684 35.7095 54.6771 36.1761 53.6545C36.3718 53.2255 36.5054 52.49 36.1532 52.1636C34.9947 54.4375 33.4423 53.8744 32.0822 54.5587Z" fill="black"/>
</g>
<defs>
<clipPath id="clip0_0_1">
<rect width="1440" height="9332" fill="white" transform="translate(-135 -85)"/>
</clipPath>
</defs>
</svg> -->
<svg xmlns="http://www.w3.org/2000/svg" width="63" height="62" viewBox="0 0 63 62" fill="none">
  <path fill-rule="evenodd" clip-rule="evenodd" d="M31.1697 2.56299C14.799 2.56299 2 14.7707 2 31.3972C2 48.0237 14.9478 59.9318 31.1697 59.9318C47.5405 59.9318 60.1831 47.5188 60.1831 30.8923C60.1831 14.4156 47.6149 2.56299 31.1697 2.56299Z" stroke="black" stroke-width="4"/>
  <path fill-rule="evenodd" clip-rule="evenodd" d="M18.995 12.3637C17.7133 13.2983 17.5606 13.7305 16.9725 15.1763C15.6461 18.4373 18.0648 24.6805 19.2409 27.9327C20.5488 31.5489 22.2966 37.2975 24.2079 40.3972C27.3732 45.5306 29.5767 37.7774 30.099 35.6112C30.3572 34.5402 31.2753 32.3459 31.3023 31.5516C28.9566 31.5298 28.1471 44.2338 24.8387 36.3837C23.2476 32.6082 17.8236 19.7719 20.6667 16.1036C20.7773 15.9609 20.7973 15.763 20.9796 15.6935C21.0802 15.4409 21.5985 14.9035 21.8891 14.8898C22.3967 14.2599 23.7207 14.0393 24.5125 14.0739C24.7247 13.4845 30.5207 14.9482 30.8637 14.8866C30.9819 13.5182 23.0385 11.3221 19.6741 12.0896C19.4283 12.1456 19.2636 12.2997 18.995 12.3637ZM40.1492 12.7089C39.9265 12.9332 37.9731 13.2409 37.397 13.5606C36.3319 14.1517 35.1855 14.6031 34.1748 15.2559C34.0312 15.3486 33.8376 15.5355 33.6423 15.5219C33.4799 15.8013 32.0646 16.4854 31.9309 16.5094C31.8573 16.7326 31.3697 16.9286 31.113 16.9764C30.8895 17.3035 29.6224 17.9202 29.2316 17.8887C28.9863 18.1331 28.5267 18.1519 28.2218 18.3184C28.1743 18.2902 28.1312 18.148 28.0144 18.3295C25.0222 18.4517 25.7035 17.9405 24.2244 17.803C24.4031 21.2432 32.5488 18.7073 33.2985 18.217C33.5449 18.0558 34.085 17.8102 34.3993 17.789C34.6239 17.5163 36.4243 16.8726 36.8418 16.8116C36.99 16.4516 40.0017 15.6912 40.9017 16.8825C42.3988 18.8639 41.1061 23.6774 40.6904 26.0908C40.0627 29.7344 38.3791 34.23 37.531 37.9313C37.1616 39.543 38.1532 39.1016 38.583 38.4002C39.2883 37.2492 42.5943 27.8733 43.0317 25.7429C43.3974 23.9619 44.4172 21.7195 44.6428 19.8786C44.9502 17.3697 45.9135 13.5287 42.9162 12.838C42.7703 12.8044 42.7289 12.7863 42.6877 12.7381C42.1502 12.8097 41.4372 12.6258 40.9506 12.6292C40.6826 12.6312 40.4098 12.7099 40.1492 12.7089ZM38.7736 41.6072C38.6768 41.1916 39.4383 40.4966 39.6605 40.011C39.9927 39.2849 39.9296 38.1332 39.6339 37.6347C39.2965 37.7654 39.729 39.9048 34.838 40.9941C33.8775 41.208 30.7187 41.1268 30.3605 41.355C31.5793 42.5515 36.0104 42.6038 37.9556 41.7333C38.1806 41.6326 38.1349 41.5967 38.4264 41.5275C38.2442 43.8017 33.7 44.1758 32.1589 44.2325C31.7142 44.2488 31.3624 44.1606 30.9709 44.1778C31.0406 44.9322 36.0228 45.8751 38.1029 44.005C39.0089 43.1906 38.7522 42.4551 38.7736 41.6072ZM31.4211 50.942C31.7117 51.9185 38.0892 51.9459 37.3528 48.2415C37.2898 47.9246 37.2875 47.9126 37.0661 47.8097C36.5112 48.7772 36.8229 50.189 32.4302 50.8309C32.1533 50.8714 31.6435 50.8546 31.4211 50.942ZM34.407 47.3602C33.9642 47.8421 32.5926 47.7209 31.9578 47.8708C32.1336 48.7169 37.3236 48.6472 37.8635 46.2548C37.9474 45.8829 37.9683 45.0344 37.636 44.6924L37.4657 44.7525C37.0204 46.413 36.1117 46.7959 34.685 47.3284C34.5255 47.377 34.6205 47.3892 34.407 47.3602ZM32.0822 54.5587C32.6094 55.3684 35.7095 54.6771 36.1761 53.6545C36.3718 53.2255 36.5054 52.49 36.1532 52.1636C34.9947 54.4375 33.4423 53.8744 32.0822 54.5587Z" fill="black"/>
  </svg>
