<svg width="681" height="168" viewBox="0 0 681 168" fill="none" xmlns="http://www.w3.org/2000/svg">
<path fill-rule="evenodd" clip-rule="evenodd" d="M2.62109 115.479H14.4648L30.3059 78.7637H81.2339L97.075 115.479H108.919L61.9879 5.92474H49.848L2.62109 115.479ZM34.5992 68.8446L55.9179 18.6568L76.9406 68.8446H34.5992Z" fill="#E8E5E0"/>
<path fill-rule="evenodd" clip-rule="evenodd" d="M180.13 5.92474H168.286L127.425 105.56H117.506V125.345H128.461V115.479H219.954V125.345H230.91V105.56H220.991L180.13 5.92474ZM139.269 105.56L174.208 19.9891L209.147 105.56H139.269Z" fill="#E8E5E0"/>
<path fill-rule="evenodd" clip-rule="evenodd" d="M290.277 4C257.706 4 232.242 28.1316 232.242 60.998C232.242 93.8644 258.002 117.404 290.277 117.404C322.847 117.404 348 92.8664 348 60C348 27.4297 322.995 4 290.277 4Z" stroke="#E8E5E0" stroke-width="8"/>
<path fill-rule="evenodd" clip-rule="evenodd" d="M365.631 115.479H376.587V64.1071H433.881V115.479H444.836V5.92474H433.881V54.188H376.587V5.92474H365.631V115.479Z" fill="#E8E5E0"/>
<path fill-rule="evenodd" clip-rule="evenodd" d="M466.748 5.92474V115.479H478.296L543.436 21.4697V115.479H554.392V5.92474H542.844L477.704 99.9345V5.92474H466.748Z" fill="#E8E5E0"/>
<path fill-rule="evenodd" clip-rule="evenodd" d="M678.899 33.9054C669.72 14.9554 651.215 4 628.415 4C596.733 4 571.565 27.8355 571.565 60.4058C571.565 93.8644 597.177 117.404 629.304 117.404C650.77 117.404 669.128 106.004 679.344 86.9062H666.315C657.433 101.119 642.628 107.485 629.304 107.485C603.247 107.485 582.521 87.3503 582.521 60.4058C582.521 35.3859 601.027 13.9191 628.563 13.9191C652.103 13.9191 662.91 29.316 665.871 33.9054H678.899Z" fill="#E8E5E0"/>
<path fill-rule="evenodd" clip-rule="evenodd" d="M266.055 23.3736C263.505 25.221 263.201 26.0754 262.031 28.9335C259.392 35.3796 264.204 47.7208 266.544 54.1496C269.146 61.298 272.623 72.6615 276.426 78.7888C282.723 88.9362 287.107 73.6102 288.147 69.328C288.66 67.211 290.487 62.8734 290.541 61.3032C285.874 61.2601 284.263 86.3729 277.681 70.8552C274.515 63.392 263.724 38.0178 269.38 30.7665C269.601 30.4843 269.64 30.0932 270.003 29.9559C270.203 29.4565 271.234 28.3942 271.813 28.3671C272.823 27.1219 275.457 26.6858 277.032 26.7543C277.454 25.5891 288.985 28.4825 289.668 28.3607C289.903 25.6558 274.099 21.3145 267.406 22.8317C266.917 22.9426 266.589 23.2471 266.055 23.3736ZM308.142 24.056C307.699 24.4993 303.812 25.1076 302.666 25.7395C300.547 26.9079 298.266 27.8003 296.255 29.0908C295.97 29.2741 295.585 29.6435 295.196 29.6165C294.873 30.1689 292.057 31.5211 291.791 31.5687C291.645 32.0098 290.675 32.3974 290.164 32.4917C289.719 33.1384 287.198 34.3574 286.421 34.2952C285.933 34.7783 285.018 34.8154 284.412 35.1446C284.317 35.0888 284.232 34.8077 283.999 35.1665C278.046 35.4081 279.402 34.3976 276.459 34.1258C276.814 40.9261 293.02 35.9133 294.512 34.9441C295.002 34.6255 296.077 34.1399 296.702 34.098C297.149 33.559 300.731 32.2865 301.562 32.1659C301.857 31.4544 307.848 29.9512 309.639 32.306C312.618 36.2229 310.046 45.738 309.219 50.5087C307.97 57.7111 304.62 66.5979 302.933 73.9143C302.198 77.1002 304.171 76.2278 305.026 74.8413C306.429 72.5661 313.006 54.0321 313.877 49.821C314.604 46.3004 316.633 41.8676 317.082 38.2287C317.694 33.2692 319.61 25.6765 313.647 24.3111C313.357 24.2446 313.274 24.2089 313.192 24.1137C312.123 24.2552 310.704 23.8918 309.736 23.8984C309.203 23.9023 308.66 24.058 308.142 24.056ZM305.405 81.1807C305.212 80.3591 306.728 78.9853 307.17 78.0255C307.831 76.59 307.705 74.3135 307.117 73.3281C306.445 73.5863 307.306 77.8154 297.575 79.9688C295.664 80.3916 289.379 80.231 288.667 80.6821C291.092 83.0474 299.908 83.1507 303.778 81.4299C304.225 81.2308 304.134 81.1598 304.714 81.0231C304.352 85.5186 295.311 86.2583 292.245 86.3703C291.36 86.4025 290.66 86.2281 289.881 86.2622C290.02 87.7534 299.932 89.6173 304.071 85.9206C305.873 84.3106 305.362 82.8569 305.405 81.1807ZM290.777 99.6334C291.355 101.564 304.043 101.618 302.578 94.295C302.453 93.6685 302.448 93.6449 302.008 93.4415C300.904 95.3539 301.524 98.1448 292.785 99.4137C292.234 99.4937 291.219 99.4605 290.777 99.6334ZM296.718 92.553C295.837 93.5055 293.108 93.266 291.845 93.5623C292.195 95.2348 302.52 95.0971 303.594 90.3678C303.761 89.6327 303.803 87.9554 303.142 87.2794L302.803 87.3982C301.917 90.6806 300.109 91.4375 297.271 92.49C296.953 92.5862 297.142 92.6103 296.718 92.553ZM292.092 106.783C293.141 108.383 299.309 107.017 300.237 104.995C300.627 104.147 300.892 102.693 300.192 102.048C297.887 106.543 294.798 105.43 292.092 106.783Z" fill="#E8E5E0"/>
<path d="M20.0438 159.683C18.6498 161.817 16.3224 162.812 13.7814 162.812C8.84952 162.812 5.52007 159.161 5.52007 154.313C5.52007 152.454 6.05361 150.607 7.17358 149.11C8.76107 146.987 11.1705 146.005 13.7814 146.005C16.439 146.005 18.6921 147.074 20.0533 149.307C20.1705 149.499 20.3639 149.607 20.5891 149.607H25.6461C25.863 149.607 26.0494 149.507 26.1693 149.327C26.2891 149.146 26.3086 148.935 26.224 148.735C25.5465 147.135 24.5801 145.675 23.3248 144.451C20.7682 141.96 17.4121 140.816 13.8762 140.816C9.81384 140.816 6.06327 142.184 3.35793 145.286C1.24354 147.711 0 150.999 0 154.219C0 157.575 1.23949 160.974 3.45772 163.5C6.20374 166.626 10.0077 168 14.1132 168C19.6812 168 23.9527 165.117 26.1639 160.288C26.2555 160.088 26.2402 159.873 26.1213 159.687C26.0025 159.502 25.8133 159.399 25.5932 159.399H20.5692C20.3508 159.399 20.1632 159.5 20.0438 159.683ZM29.3902 142.297V145.851C29.3902 146.197 29.6722 146.479 30.0178 146.479H35.0673C35.4129 146.479 35.6949 146.761 35.6949 147.106V166.519C35.6949 166.865 35.9769 167.147 36.3225 167.147H40.5874C40.9331 167.147 41.215 166.865 41.215 166.519V147.106C41.215 146.761 41.497 146.479 41.8427 146.479H46.8921C47.2377 146.479 47.5197 146.197 47.5197 145.851V142.297C47.5197 141.952 47.2377 141.67 46.8921 141.67H30.0178C29.6722 141.67 29.3902 141.952 29.3902 142.297ZM63.6026 140.816C59.7648 140.816 56.1683 142.314 53.5799 145.168C51.2704 147.714 50.0582 151.028 50.0582 154.456C50.0582 157.779 51.2204 160.984 53.42 163.484C56.016 166.434 59.6876 168 63.6026 168C67.5176 168 71.1892 166.434 73.7853 163.484C75.9847 160.984 77.147 157.779 77.147 154.456C77.147 151.028 75.9347 147.714 73.6253 145.168C71.037 142.314 67.4403 140.816 63.6026 140.816ZM63.6026 146.005C65.7979 146.005 67.8237 146.808 69.3344 148.416C70.8611 150.041 71.6268 152.242 71.6268 154.456C71.6268 159.078 68.3369 162.812 63.6026 162.812C58.8682 162.812 55.5783 159.078 55.5783 154.456C55.5783 152.242 56.344 150.041 57.8707 148.416C59.3815 146.808 61.4073 146.005 63.6026 146.005ZM82.3514 167.147H86.6163C86.962 167.147 87.244 166.865 87.244 166.519V149.582C87.244 149.275 87.4601 149.017 87.7627 148.964C88.0653 148.91 88.3564 149.079 88.4614 149.367L94.7764 166.734C94.8683 166.986 95.0974 167.147 95.3663 167.147H99.152C99.4209 167.147 99.65 166.986 99.7419 166.734L106.057 149.367C106.162 149.079 106.453 148.91 106.756 148.964C107.058 149.017 107.274 149.275 107.274 149.582V166.519C107.274 166.865 107.556 167.147 107.902 167.147H112.167C112.512 167.147 112.794 166.865 112.794 166.519V142.297C112.794 141.952 112.512 141.67 112.167 141.67H104.753C104.484 141.67 104.254 141.83 104.163 142.083L97.8491 159.479C97.7573 159.732 97.5282 159.892 97.2591 159.892C96.9901 159.892 96.761 159.732 96.6692 159.479L90.3555 142.083C90.2637 141.83 90.0346 141.67 89.7656 141.67H82.3514C82.0058 141.67 81.7238 141.952 81.7238 142.297V166.519C81.7238 166.865 82.0058 167.147 82.3514 167.147ZM143.453 141.67H139.71C139.364 141.67 139.082 141.952 139.082 142.297V144.345C139.082 144.622 138.91 144.858 138.646 144.942C138.381 145.027 138.105 144.935 137.943 144.709C136.061 142.068 133.313 140.816 130.015 140.816C127.771 140.816 125.596 141.408 123.677 142.576C121.738 143.756 120.183 145.449 119.11 147.445C117.921 149.658 117.371 152.141 117.371 154.645C117.371 157.48 118.082 160.254 119.68 162.615C121.078 164.678 123.053 166.263 125.376 167.166C126.794 167.718 128.304 168 129.825 168C131.056 168 132.297 167.793 133.457 167.383C135.266 166.743 136.778 165.645 137.965 164.163C138.134 163.952 138.406 163.874 138.662 163.964C138.919 164.053 139.082 164.284 139.082 164.556V166.519C139.082 166.865 139.364 167.147 139.71 167.147H143.453C143.799 167.147 144.081 166.865 144.081 166.519V142.297C144.081 141.952 143.799 141.67 143.453 141.67ZM131.01 146.005C135.84 146.005 138.94 149.661 138.94 154.361C138.94 156.866 138.118 159.344 136.175 161.009C134.724 162.252 132.904 162.812 131.01 162.812C126.256 162.812 122.891 159.379 122.891 154.645C122.891 152.061 123.822 149.525 125.829 147.831C127.291 146.597 129.107 146.005 131.01 146.005ZM147.899 142.297V145.851C147.899 146.197 148.181 146.479 148.527 146.479H153.576C153.922 146.479 154.204 146.761 154.204 147.106V166.519C154.204 166.865 154.486 167.147 154.832 167.147H159.096C159.442 167.147 159.724 166.865 159.724 166.519V147.106C159.724 146.761 160.006 146.479 160.352 146.479H165.401C165.747 146.479 166.029 146.197 166.029 145.851V142.297C166.029 141.952 165.747 141.67 165.401 141.67H148.527C148.181 141.67 147.899 141.952 147.899 142.297ZM182.112 140.816C178.274 140.816 174.677 142.314 172.089 145.168C169.779 147.714 168.567 151.028 168.567 154.456C168.567 157.779 169.729 160.984 171.929 163.484C174.525 166.434 178.196 168 182.112 168C186.027 168 189.698 166.434 192.294 163.484C194.494 160.984 195.656 157.779 195.656 154.456C195.656 151.028 194.444 147.714 192.134 145.168C189.546 142.314 185.949 140.816 182.112 140.816ZM182.112 146.005C184.307 146.005 186.333 146.808 187.843 148.416C189.37 150.041 190.136 152.242 190.136 154.456C190.136 159.078 186.846 162.812 182.112 162.812C177.377 162.812 174.087 159.078 174.087 154.456C174.087 152.242 174.853 150.041 176.38 148.416C177.89 146.808 179.916 146.005 182.112 146.005ZM213.187 141.67H208.869C208.609 141.67 208.386 141.819 208.288 142.06L198.407 166.282C198.325 166.482 198.347 166.69 198.467 166.869C198.587 167.048 198.772 167.147 198.988 167.147H203.775C204.043 167.147 204.271 166.988 204.364 166.736L210.439 150.273C210.532 150.021 210.76 149.862 211.028 149.862C211.296 149.862 211.524 150.021 211.617 150.273L217.691 166.736C217.784 166.988 218.012 167.147 218.28 167.147H223.068C223.283 167.147 223.468 167.048 223.589 166.869C223.709 166.69 223.73 166.482 223.649 166.282L213.768 142.06C213.669 141.819 213.447 141.67 213.187 141.67ZM239.944 140.816C236.106 140.816 232.51 142.314 229.921 145.168C227.612 147.714 226.4 151.028 226.4 154.456C226.4 157.779 227.562 160.984 229.761 163.484C232.357 166.434 236.029 168 239.944 168C243.859 168 247.531 166.434 250.127 163.484C252.326 160.984 253.488 157.779 253.488 154.456C253.488 151.028 252.276 147.714 249.967 145.168C247.378 142.314 243.782 140.816 239.944 140.816ZM239.944 146.005C242.139 146.005 244.165 146.808 245.676 148.416C247.202 150.041 247.968 152.242 247.968 154.456C247.968 159.078 244.678 162.812 239.944 162.812C235.21 162.812 231.92 159.078 231.92 154.456C231.92 152.242 232.685 150.041 234.212 148.416C235.723 146.808 237.749 146.005 239.944 146.005ZM258.065 142.297V166.519C258.065 166.865 258.347 167.147 258.693 167.147H262.958C263.303 167.147 263.585 166.865 263.585 166.519V147.106C263.585 146.761 263.867 146.479 264.213 146.479H271.538C271.883 146.479 272.165 146.197 272.165 145.851V142.297C272.165 141.952 271.883 141.67 271.538 141.67H258.693C258.347 141.67 258.065 141.952 258.065 142.297ZM276.078 142.297V166.519C276.078 166.865 276.36 167.147 276.706 167.147H281.453C281.667 167.147 281.85 167.05 281.971 166.874L292.899 150.926C293.057 150.696 293.335 150.599 293.603 150.682C293.87 150.764 294.044 151.001 294.044 151.281V166.519C294.044 166.865 294.326 167.147 294.672 167.147H298.937C299.283 167.147 299.565 166.865 299.565 166.519V142.297C299.565 141.952 299.283 141.67 298.937 141.67H294.19C293.976 141.67 293.793 141.766 293.672 141.943L282.744 157.89C282.586 158.121 282.308 158.218 282.041 158.135C281.774 158.052 281.599 157.815 281.599 157.535V142.297C281.599 141.952 281.317 141.67 280.971 141.67H276.706C276.36 141.67 276.078 141.952 276.078 142.297ZM323.587 141.67H319.322C318.976 141.67 318.694 141.952 318.694 142.297V152.703C318.694 153.049 318.412 153.331 318.067 153.331H314.605C312.871 153.331 311.005 152.94 310.381 151.103C310.119 150.332 310.136 149.522 310.136 148.72V142.297C310.136 141.952 309.854 141.67 309.508 141.67H305.243C304.897 141.67 304.616 141.952 304.616 142.297V148.72C304.616 149.73 304.577 150.726 304.676 151.735C304.78 152.801 305.031 153.849 305.59 154.774C307.353 157.696 311.538 158.14 314.605 158.14H318.067C318.412 158.14 318.694 158.422 318.694 158.768V166.519C318.694 166.865 318.976 167.147 319.322 167.147H323.587C323.932 167.147 324.214 166.865 324.214 166.519V142.297C324.214 141.952 323.932 141.67 323.587 141.67ZM355.65 156.227C355.69 155.623 355.69 155.018 355.69 154.408C355.69 146.781 350.346 140.816 342.573 140.816C338.518 140.816 334.926 142.366 332.328 145.504C330.275 147.983 328.981 151.368 328.981 154.598C328.981 157.784 330.235 161.077 332.295 163.499C334.898 166.559 338.494 168 342.478 168C344.295 168 346.173 167.629 347.851 166.939C350.646 165.791 352.738 163.837 354.154 161.278C354.264 161.078 354.261 160.852 354.145 160.656C354.029 160.459 353.833 160.347 353.604 160.347H348.578C348.399 160.347 348.245 160.413 348.122 160.544C346.59 162.167 344.457 162.812 342.241 162.812C338.846 162.812 336.026 160.864 335.073 157.617C335.015 157.421 335.05 157.228 335.173 157.064C335.295 156.901 335.471 156.813 335.675 156.813H355.023C355.354 156.813 355.628 156.557 355.65 156.227ZM335.02 151.153C336.225 147.981 339.146 146.005 342.573 146.005C345.956 146.005 348.764 147.975 349.778 151.187C349.84 151.384 349.808 151.581 349.686 151.747C349.563 151.914 349.386 152.004 349.179 152.004H335.606C335.393 152.004 335.21 151.908 335.09 151.732C334.969 151.557 334.944 151.352 335.02 151.153ZM379.363 159.683C377.969 161.817 375.642 162.812 373.101 162.812C368.169 162.812 364.839 159.161 364.839 154.313C364.839 152.454 365.373 150.607 366.493 149.11C368.08 146.987 370.49 146.005 373.101 146.005C375.758 146.005 378.011 147.074 379.373 149.307C379.49 149.499 379.683 149.607 379.908 149.607H384.965C385.182 149.607 385.369 149.507 385.489 149.327C385.608 149.146 385.628 148.935 385.543 148.735C384.866 147.135 383.899 145.675 382.644 144.451C380.087 141.96 376.731 140.816 373.195 140.816C369.133 140.816 365.382 142.184 362.677 145.286C360.563 147.711 359.319 150.999 359.319 154.219C359.319 157.575 360.559 160.974 362.777 163.5C365.523 166.626 369.327 168 373.432 168C379 168 383.272 165.117 385.483 160.288C385.575 160.088 385.559 159.873 385.441 159.687C385.322 159.502 385.133 159.399 384.912 159.399H379.888C379.67 159.399 379.482 159.5 379.363 159.683ZM391.423 167.147H395.688C396.033 167.147 396.315 166.865 396.315 166.519V142.297C396.315 141.952 396.033 141.67 395.688 141.67H391.423C391.077 141.67 390.795 141.952 390.795 142.297V166.519C390.795 166.865 391.077 167.147 391.423 167.147ZM396.874 154.498L406.196 166.896C406.318 167.059 406.494 167.147 406.698 167.147H412.042C412.289 167.147 412.5 167.014 412.608 166.792C412.715 166.57 412.688 166.323 412.534 166.129L402.92 153.997C402.732 153.76 402.737 153.432 402.933 153.201L411.856 142.704C412.018 142.513 412.053 142.261 411.948 142.034C411.842 141.807 411.628 141.67 411.378 141.67H406.592C406.392 141.67 406.22 141.754 406.097 141.911L396.88 153.735C396.703 153.961 396.701 154.268 396.874 154.498ZM443.044 141.67H439.3C438.955 141.67 438.673 141.952 438.673 142.297V144.345C438.673 144.622 438.501 144.858 438.236 144.942C437.972 145.027 437.695 144.935 437.534 144.709C435.652 142.068 432.903 140.816 429.606 140.816C427.362 140.816 425.186 141.408 423.268 142.576C421.328 143.756 419.774 145.449 418.701 147.445C417.511 149.658 416.962 152.141 416.962 154.645C416.962 157.48 417.672 160.254 419.271 162.615C420.669 164.678 422.644 166.263 424.967 167.166C426.385 167.718 427.895 168 429.416 168C430.646 168 431.888 167.793 433.048 167.383C434.856 166.743 436.369 165.645 437.555 164.163C437.725 163.952 437.997 163.874 438.253 163.964C438.509 164.053 438.673 164.284 438.673 164.556V166.519C438.673 166.865 438.955 167.147 439.3 167.147H443.044C443.39 167.147 443.672 166.865 443.672 166.519V142.297C443.672 141.952 443.39 141.67 443.044 141.67ZM430.601 146.005C435.431 146.005 438.531 149.661 438.531 154.361C438.531 156.866 437.709 159.344 435.765 161.009C434.315 162.252 432.495 162.812 430.601 162.812C425.846 162.812 422.482 159.379 422.482 154.645C422.482 152.061 423.412 149.525 425.42 147.831C426.882 146.597 428.698 146.005 430.601 146.005ZM468.642 141.67H458.237C456.245 141.67 454.262 142.121 452.594 143.244C451.198 144.183 450.153 145.512 449.569 147.089C449.225 148.02 449.054 149.008 449.054 150C449.054 153.923 451.386 157.148 455.278 157.801C455.507 157.84 455.685 157.987 455.764 158.205C455.844 158.423 455.803 158.65 455.652 158.827L449.445 166.112C449.283 166.303 449.248 166.555 449.353 166.782C449.458 167.01 449.672 167.147 449.923 167.147H455.081C455.282 167.147 455.456 167.062 455.578 166.902L462.624 157.751C462.791 157.534 463.065 157.451 463.324 157.539C463.583 157.628 463.749 157.86 463.749 158.134V166.519C463.749 166.865 464.031 167.147 464.377 167.147H468.642C468.987 167.147 469.269 166.865 469.269 166.519V142.297C469.269 141.952 468.987 141.67 468.642 141.67ZM463.122 153.852H458.474C456.344 153.852 454.574 152.596 454.574 150.332C454.574 147.977 456.13 146.479 458.474 146.479H463.122C463.467 146.479 463.749 146.761 463.749 147.106V153.225C463.749 153.571 463.467 153.852 463.122 153.852ZM486.846 167.147H491.111C491.457 167.147 491.739 166.865 491.739 166.519V142.297C491.739 141.952 491.457 141.67 491.111 141.67H486.846C486.501 141.67 486.219 141.952 486.219 142.297V166.519C486.219 166.865 486.501 167.147 486.846 167.147ZM492.297 154.498L501.619 166.896C501.742 167.059 501.917 167.147 502.121 167.147H507.466C507.712 167.147 507.924 167.014 508.031 166.792C508.138 166.57 508.111 166.323 507.958 166.129L498.343 153.997C498.155 153.76 498.161 153.432 498.357 153.201L507.279 142.704C507.442 142.513 507.476 142.261 507.371 142.034C507.266 141.807 507.052 141.67 506.801 141.67H502.015C501.815 141.67 501.643 141.754 501.52 141.911L492.304 153.735C492.127 153.961 492.124 154.268 492.297 154.498ZM526.666 141.67H522.349C522.088 141.67 521.866 141.819 521.768 142.06L511.887 166.282C511.805 166.482 511.827 166.69 511.947 166.869C512.067 167.048 512.252 167.147 512.468 167.147H517.255C517.523 167.147 517.751 166.988 517.844 166.736L523.919 150.273C524.011 150.021 524.24 149.862 524.508 149.862C524.776 149.862 525.004 150.021 525.096 150.273L531.171 166.736C531.264 166.988 531.492 167.147 531.76 167.147H536.547C536.763 167.147 536.948 167.048 537.068 166.869C537.189 166.69 537.21 166.482 537.129 166.282L527.248 142.06C527.149 141.819 526.927 141.67 526.666 141.67ZM541.207 142.297V166.519C541.207 166.865 541.489 167.147 541.834 167.147H546.582C546.795 167.147 546.979 167.05 547.099 166.874L558.027 150.926C558.185 150.696 558.464 150.599 558.731 150.681C558.998 150.764 559.173 151.001 559.173 151.281V166.519C559.173 166.865 559.455 167.147 559.8 167.147H564.065C564.411 167.147 564.693 166.865 564.693 166.519V142.297C564.693 141.952 564.411 141.67 564.065 141.67H559.318C559.104 141.67 558.921 141.766 558.8 141.943L547.872 157.89C547.714 158.121 547.436 158.218 547.169 158.135C546.902 158.052 546.727 157.815 546.727 157.535V142.297C546.727 141.952 546.445 141.67 546.099 141.67H541.834C541.489 141.67 541.207 141.952 541.207 142.297ZM570.597 142.297V166.519C570.597 166.865 570.879 167.147 571.225 167.147H575.489C575.835 167.147 576.117 166.865 576.117 166.519V156.777C576.117 156.431 576.399 156.149 576.745 156.149H586.039C586.385 156.149 586.667 156.431 586.667 156.777V166.519C586.667 166.865 586.949 167.147 587.294 167.147H591.559C591.905 167.147 592.187 166.865 592.187 166.519V142.297C592.187 141.952 591.905 141.67 591.559 141.67H587.294C586.949 141.67 586.667 141.952 586.667 142.297V150.712C586.667 151.058 586.385 151.34 586.039 151.34H576.745C576.399 151.34 576.117 151.058 576.117 150.712V142.297C576.117 141.952 575.835 141.67 575.489 141.67H571.225C570.879 141.67 570.597 141.952 570.597 142.297ZM598.091 142.297V166.519C598.091 166.865 598.373 167.147 598.719 167.147H603.466C603.68 167.147 603.863 167.05 603.984 166.874L614.912 150.926C615.07 150.696 615.348 150.599 615.615 150.681C615.882 150.764 616.057 151.001 616.057 151.281V166.519C616.057 166.865 616.339 167.147 616.685 167.147H620.95C621.295 167.147 621.577 166.865 621.577 166.519V142.297C621.577 141.952 621.295 141.67 620.95 141.67H616.202C615.989 141.67 615.805 141.766 615.685 141.943L604.757 157.89C604.599 158.121 604.32 158.218 604.053 158.135C603.786 158.052 603.611 157.815 603.611 157.535V142.297C603.611 141.952 603.329 141.67 602.984 141.67H598.719C598.373 141.67 598.091 141.952 598.091 142.297ZM628.109 167.147H632.374C632.719 167.147 633.001 166.865 633.001 166.519V142.297C633.001 141.952 632.719 141.67 632.374 141.67H628.109C627.763 141.67 627.481 141.952 627.481 142.297V166.519C627.481 166.865 627.763 167.147 628.109 167.147ZM633.56 154.498L642.882 166.896C643.004 167.059 643.18 167.147 643.384 167.147H648.728C648.975 167.147 649.186 167.014 649.294 166.792C649.401 166.57 649.374 166.323 649.22 166.129L639.606 153.997C639.418 153.76 639.423 153.432 639.619 153.201L648.542 142.704C648.704 142.513 648.739 142.261 648.634 142.034C648.528 141.807 648.314 141.67 648.064 141.67H643.278C643.078 141.67 642.906 141.754 642.783 141.911L633.566 153.735C633.389 153.961 633.387 154.268 633.56 154.498ZM679.73 141.67H675.987C675.641 141.67 675.359 141.952 675.359 142.297V144.345C675.359 144.622 675.187 144.858 674.923 144.942C674.658 145.027 674.381 144.935 674.22 144.709C672.338 142.068 669.589 140.816 666.292 140.816C664.048 140.816 661.872 141.408 659.954 142.576C658.014 143.756 656.46 145.449 655.387 147.445C654.197 149.658 653.648 152.141 653.648 154.645C653.648 157.48 654.358 160.254 655.957 162.615C657.354 164.678 659.33 166.263 661.653 167.166C663.071 167.718 664.581 168 666.102 168C667.333 168 668.574 167.793 669.734 167.383C671.542 166.743 673.055 165.645 674.241 164.163C674.411 163.952 674.683 163.874 674.939 163.964C675.195 164.053 675.359 164.284 675.359 164.556V166.519C675.359 166.865 675.641 167.147 675.987 167.147H679.73C680.076 167.147 680.358 166.865 680.358 166.519V142.297C680.358 141.952 680.076 141.67 679.73 141.67ZM667.287 146.005C672.117 146.005 675.217 149.661 675.217 154.361C675.217 156.866 674.395 159.344 672.451 161.009C671.001 162.252 669.181 162.812 667.287 162.812C662.533 162.812 659.168 159.379 659.168 154.645C659.168 152.061 660.098 149.525 662.106 147.831C663.568 146.597 665.384 146.005 667.287 146.005Z" fill="#E8E5E0"/>
<path fill-rule="evenodd" clip-rule="evenodd" d="M638.36 160.479L633.592 154.108L635.555 151.558C636.635 150.156 638.819 147.369 640.409 145.363L643.3 141.717L645.547 141.722C646.783 141.725 647.979 141.844 648.206 141.988C648.51 142.181 647.392 143.689 643.939 147.75C641.366 150.776 639.263 153.414 639.266 153.613C639.268 153.811 641.496 156.766 644.217 160.18C646.938 163.593 649.17 166.49 649.177 166.618C649.184 166.746 647.826 166.851 646.159 166.851H643.128L638.36 160.479Z" fill="#E8E5E0"/>
<path fill-rule="evenodd" clip-rule="evenodd" d="M627.854 154.362L627.935 141.873H630.262H632.589L632.671 154.362L632.752 166.851H630.262H627.773L627.854 154.362Z" fill="#E8E5E0"/>
<path fill-rule="evenodd" clip-rule="evenodd" d="M598.377 154.362L598.458 141.873H600.785H603.113L603.268 149.848C603.428 158.075 603.588 159.056 604.629 158.192C604.88 157.983 607.494 154.296 610.437 149.998C613.38 145.7 615.938 142.077 616.121 141.948C616.305 141.819 617.502 141.749 618.782 141.793L621.109 141.873L621.19 154.362L621.271 166.851H618.791H616.31L616.227 158.706C616.147 150.795 616.127 150.561 615.524 150.561C615.061 150.561 613.485 152.629 609.318 158.703L603.733 166.846L601.015 166.848L598.296 166.851L598.377 154.362Z" fill="#E8E5E0"/>
<path fill-rule="evenodd" clip-rule="evenodd" d="M570.894 166.644C570.781 166.53 570.688 160.96 570.688 154.266C570.688 140.533 570.439 141.718 573.325 141.718C576.087 141.718 575.962 141.484 575.962 146.682C575.962 150.58 576.036 151.299 576.453 151.458C577.093 151.704 585.692 151.704 586.332 151.458C586.749 151.299 586.822 150.58 586.822 146.682C586.822 142.785 586.896 142.066 587.313 141.906C588.025 141.633 591.253 141.684 591.713 141.976C592.02 142.17 592.087 144.877 592.023 154.46L591.942 166.696L589.39 166.786L586.837 166.876L586.752 161.511L586.667 156.146H581.392H576.118L576.033 161.498L575.948 166.851H573.525C572.192 166.851 571.008 166.758 570.894 166.644Z" fill="#E8E5E0"/>
<path fill-rule="evenodd" clip-rule="evenodd" d="M541.594 154.374L541.675 141.873H544.002H546.329L546.412 149.829C546.483 156.672 546.564 157.843 546.991 158.197C547.624 158.723 547.436 158.959 553.673 149.812C556.418 145.787 558.889 142.314 559.165 142.094C559.5 141.827 560.442 141.724 561.996 141.784L564.326 141.873L564.407 154.362L564.488 166.851H562.002H559.516V159.153C559.516 153.217 559.421 151.325 559.102 150.888C558.873 150.576 558.531 150.375 558.34 150.441C558.15 150.507 555.507 154.191 552.468 158.628L546.942 166.696L544.227 166.786L541.513 166.875L541.594 154.374Z" fill="#E8E5E0"/>
<path fill-rule="evenodd" clip-rule="evenodd" d="M60.8404 167.593C55.8793 166.557 51.9784 162.847 50.6085 157.862C50.1263 156.107 50.1632 152.596 50.6828 150.795C52.0292 146.127 55.5485 142.621 60.1154 141.397C62.099 140.865 65.1821 140.866 67.0777 141.398C73.073 143.082 76.9588 148.202 76.9633 154.425C76.9648 156.708 76.5924 158.284 75.5296 160.489C74.7522 162.103 74.458 162.508 73.0499 163.909C71.3086 165.641 69.7387 166.594 67.4276 167.322C65.8633 167.815 62.557 167.951 60.8404 167.593ZM65.2601 162.77C67.4666 162.359 69.7273 160.679 70.708 158.723C72.9372 154.277 71.3544 148.77 67.2671 146.75C65.0823 145.67 62.2287 145.646 60.0438 146.689C55.1169 149.04 53.8952 156.353 57.7486 160.427C58.8796 161.623 59.8977 162.239 61.3905 162.629C62.71 162.974 63.9313 163.018 65.2601 162.77Z" fill="#E8E5E0"/>
<path fill-rule="evenodd" clip-rule="evenodd" d="M35.9633 166.859C35.8966 166.792 35.8408 162.282 35.8394 156.836C35.8378 150.92 35.7701 146.829 35.6712 146.672C35.5386 146.462 34.9207 146.393 32.5678 146.322L29.63 146.235L29.5804 144.149C29.5435 142.598 29.5884 142.027 29.7554 141.921C29.8789 141.842 33.8091 141.777 38.4892 141.775C45.5518 141.773 47.0328 141.814 47.2008 142.017C47.3347 142.178 47.3863 142.932 47.3534 144.248L47.3038 146.235L44.3907 146.283C42.2406 146.318 41.4275 146.391 41.2861 146.562C41.1535 146.721 41.0807 149.882 41.0494 156.838L41.0042 166.884L38.5444 166.932C37.1915 166.959 36.03 166.926 35.9633 166.859Z" fill="#E8E5E0"/>
<path fill-rule="evenodd" clip-rule="evenodd" d="M81.9863 166.859C81.9196 166.793 81.865 161.215 81.865 154.465C81.865 145.154 81.9157 142.142 82.075 141.983C82.3913 141.667 89.8002 141.687 90.064 142.005C90.1698 142.132 91.701 146.207 93.4667 151.061L96.677 159.884H97.2664H97.8557L101.05 151.077C102.807 146.233 104.337 142.158 104.45 142.021C104.747 141.664 112.172 141.655 112.468 142.011C112.611 142.184 112.653 145.613 112.62 154.567L112.575 166.884H110.038H107.501L107.413 157.997C107.338 150.352 107.289 149.086 107.063 148.944C106.679 148.701 106.45 148.735 106.153 149.079C106.007 149.247 104.488 153.244 102.778 157.959C101.067 162.675 99.6297 166.632 99.5842 166.753C99.5239 166.912 98.893 166.971 97.264 166.971C95.6349 166.971 95.004 166.912 94.9437 166.753C94.8982 166.632 93.4612 162.675 91.7504 157.959C90.0396 153.244 88.5207 149.247 88.3751 149.079C88.0778 148.735 87.8489 148.701 87.4646 148.944C87.2388 149.086 87.1899 150.352 87.1146 157.997L87.0271 166.884L84.5673 166.932C83.2144 166.959 82.0529 166.926 81.9863 166.859Z" fill="#E8E5E0"/>
<path fill-rule="evenodd" clip-rule="evenodd" d="M127.186 167.575C126.56 167.441 125.302 166.962 124.39 166.511C121.392 165.03 119.199 162.36 118.083 158.834C117.534 157.098 117.405 153.589 117.816 151.558C118.847 146.458 122.331 142.582 127.014 141.324C128.714 140.867 131.489 140.891 133.055 141.378C134.645 141.872 136.181 142.873 137.25 144.112C138.102 145.098 138.717 145.363 139.031 144.879C139.108 144.759 139.212 144.03 139.26 143.26L139.347 141.86L141.422 141.811C142.803 141.778 143.579 141.829 143.741 141.963C143.945 142.133 143.984 144.151 143.982 154.35C143.98 161.051 143.915 166.635 143.837 166.758C143.73 166.925 143.142 166.97 141.521 166.933L139.347 166.884L139.26 165.571C139.212 164.849 139.108 164.16 139.031 164.04C138.731 163.578 138.132 163.851 136.918 165.002C134.337 167.45 130.876 168.365 127.186 167.575ZM132.82 162.751C134.287 162.443 135.593 161.737 136.646 160.683C140.24 157.088 139.746 150.082 135.702 147.298C134.395 146.397 132.871 145.959 131.04 145.956C126.149 145.95 122.805 149.474 122.813 154.627C122.816 157.027 123.47 158.799 124.945 160.414C126.776 162.416 129.943 163.357 132.82 162.751Z" fill="#E8E5E0"/>
<path fill-rule="evenodd" clip-rule="evenodd" d="M154.43 166.859C154.364 166.793 154.309 162.239 154.309 156.74C154.309 149.198 154.258 146.691 154.099 146.533C153.953 146.387 153.026 146.323 151.056 146.323C148.633 146.323 148.207 146.283 148.116 146.046C147.915 145.522 147.999 142.203 148.22 141.983C148.465 141.738 165.262 141.678 165.645 141.921C165.812 142.027 165.857 142.598 165.82 144.149L165.771 146.235L162.854 146.323C161.249 146.371 159.871 146.476 159.792 146.556C159.712 146.636 159.607 151.243 159.559 156.793L159.471 166.884L157.012 166.932C155.659 166.959 154.497 166.926 154.43 166.859Z" fill="#E8E5E0"/>
<path fill-rule="evenodd" clip-rule="evenodd" d="M179.256 167.569C175.154 166.652 172.021 164.213 170.131 160.465C168.52 157.271 168.282 153.707 169.437 150.067C170.081 148.035 170.982 146.619 172.783 144.81C174.138 143.448 174.621 143.09 176.023 142.409C179.511 140.717 183.128 140.495 186.686 141.754C188.681 142.46 189.903 143.249 191.59 144.923C192.885 146.208 193.211 146.661 193.986 148.248C195.102 150.536 195.478 152.135 195.465 154.547C195.433 160.601 191.469 165.832 185.72 167.408C184.205 167.823 180.777 167.909 179.256 167.569ZM183.715 162.77C187.628 162.028 190.182 158.751 190.182 154.473C190.182 151.933 189.455 149.988 187.885 148.328C186.972 147.363 185.513 146.486 184.269 146.155C183.068 145.836 180.8 145.907 179.523 146.305C175.213 147.646 172.902 152.719 174.461 157.415C175.769 161.352 179.575 163.555 183.715 162.77Z" fill="#E8E5E0"/>
<path fill-rule="evenodd" clip-rule="evenodd" d="M198.624 166.752C198.499 166.597 199.884 163.019 203.401 154.406C206.125 147.736 208.449 142.163 208.567 142.021C208.74 141.812 209.235 141.772 211.155 141.812L213.529 141.86L218.555 154.17C221.319 160.94 223.538 166.59 223.486 166.725C223.411 166.922 222.848 166.971 220.689 166.971H217.987L217.732 166.361C217.591 166.025 216.249 162.423 214.749 158.355C211.252 148.874 211.657 149.788 210.98 149.855L210.421 149.91L207.345 158.222C205.652 162.794 204.204 166.633 204.126 166.753C203.925 167.063 198.872 167.062 198.624 166.752Z" fill="#E8E5E0"/>
<path fill-rule="evenodd" clip-rule="evenodd" d="M237.442 167.656C234.736 167.125 232.533 165.937 230.494 163.909C229.086 162.509 228.792 162.103 228.014 160.49C226.951 158.285 226.579 156.709 226.581 154.425C226.585 148.203 230.471 143.082 236.466 141.398C238.35 140.869 241.446 140.865 243.402 141.39C247.054 142.37 250.036 144.753 251.768 148.077C255.965 156.13 251.353 165.913 242.568 167.593C241.134 167.868 238.675 167.898 237.442 167.656ZM241.963 162.677C243.504 162.314 244.603 161.674 245.746 160.476C249.656 156.377 248.458 149.055 243.49 146.684C241.312 145.645 238.457 145.673 236.266 146.755C231.365 149.178 230.268 156.575 234.216 160.587C236.176 162.578 239.07 163.359 241.963 162.677Z" fill="#E8E5E0"/>
<path fill-rule="evenodd" clip-rule="evenodd" d="M258.332 166.753C258.286 166.632 258.269 160.982 258.294 154.197L258.339 141.86L264.968 141.815C269.716 141.782 271.665 141.825 271.837 141.967C272.153 142.23 272.178 145.801 271.866 146.113C271.715 146.263 270.563 146.323 267.789 146.323C265.014 146.323 263.862 146.382 263.711 146.533C263.553 146.691 263.501 149.162 263.501 156.58C263.501 161.991 263.454 166.542 263.395 166.695C263.305 166.929 262.913 166.971 260.852 166.971C259.064 166.971 258.393 166.913 258.332 166.753Z" fill="#E8E5E0"/>
<path fill-rule="evenodd" clip-rule="evenodd" d="M318.919 166.859C318.852 166.793 318.798 164.871 318.798 162.589C318.798 159.479 318.743 158.396 318.579 158.266C318.459 158.17 316.825 158.048 314.948 157.995C310.002 157.855 307.95 157.235 306.281 155.38C304.956 153.906 304.886 153.5 304.886 147.285V141.86L307.224 141.812C308.799 141.779 309.642 141.828 309.805 141.964C310 142.126 310.048 142.983 310.048 146.28C310.048 148.996 310.12 150.635 310.26 151.102C310.526 151.987 311.345 152.822 312.246 153.125C313.188 153.442 317.921 153.604 318.42 153.337C318.795 153.137 318.798 153.089 318.798 147.664C318.798 143.642 318.853 142.137 319.008 141.983C319.248 141.743 323.465 141.686 323.83 141.918C324.004 142.028 324.04 144.656 324.005 154.471L323.96 166.884L321.5 166.932C320.147 166.959 318.986 166.926 318.919 166.859Z" fill="#E8E5E0"/>
<path fill-rule="evenodd" clip-rule="evenodd" d="M370.017 167.508C369.091 167.306 367.803 166.844 366.785 166.349C365.332 165.642 364.871 165.301 363.513 163.93C362.343 162.749 361.742 161.97 361.2 160.934C358.487 155.747 358.987 150.205 362.576 145.675C364.191 143.638 366.967 141.963 369.807 141.311C371.971 140.815 375.116 140.897 377.152 141.502C380.719 142.563 383.335 144.705 384.955 147.894C385.255 148.482 385.456 149.079 385.402 149.218C385.322 149.426 384.794 149.472 382.533 149.472H379.761L378.91 148.487C377.301 146.624 375.754 145.961 373.015 145.96C369.446 145.959 366.944 147.489 365.537 150.532C364.027 153.797 364.785 158.392 367.214 160.704C368.084 161.532 369.718 162.393 370.952 162.674C374.083 163.386 376.888 162.617 378.875 160.5L379.864 159.447H382.391C385.681 159.447 385.745 159.494 384.816 161.255C383.899 162.992 381.446 165.455 379.781 166.309C377.684 167.384 376.39 167.704 373.832 167.777C372.053 167.829 371.221 167.77 370.017 167.508Z" fill="#E8E5E0"/>
<path fill-rule="evenodd" clip-rule="evenodd" d="M339.596 167.593C335.338 166.704 332.007 163.931 330.233 159.797C328.541 155.857 328.844 151.574 331.099 147.547C332.167 145.641 334.388 143.465 336.247 142.505C339.67 140.735 343.62 140.475 347.204 141.783C350.178 142.869 352.634 145.085 354.027 147.941C355.137 150.215 355.432 151.535 355.446 154.284L355.458 156.559L345.346 156.647C334.589 156.74 334.907 156.713 334.9 157.538C334.894 158.099 335.96 159.921 336.773 160.738C338.654 162.63 341.373 163.329 344.375 162.693C345.743 162.403 346.387 162.1 347.6 161.176L348.491 160.497H351.122C354.36 160.497 354.455 160.554 353.554 161.963C351.883 164.575 349.348 166.436 346.241 167.332C344.587 167.809 341.257 167.939 339.596 167.593ZM349.736 151.887C350.051 151.572 349.996 151.242 349.427 150.039C348.548 148.18 346.761 146.704 344.73 146.157C344.318 146.046 343.335 145.955 342.545 145.955C340.076 145.956 338.064 146.803 336.501 148.499C335.278 149.825 334.516 151.739 335.116 151.981C335.236 152.03 338.527 152.076 342.43 152.083C347.731 152.094 349.579 152.044 349.736 151.887Z" fill="#E8E5E0"/>
<path fill-rule="evenodd" clip-rule="evenodd" d="M391.001 166.699C390.942 166.544 390.893 160.967 390.893 154.305C390.893 145.118 390.944 142.142 391.103 141.983C391.343 141.743 395.56 141.686 395.925 141.918C396.099 142.028 396.136 144.656 396.1 154.471L396.055 166.884L393.582 166.932C391.442 166.974 391.095 166.943 391.001 166.699Z" fill="#E8E5E0"/>
<path fill-rule="evenodd" clip-rule="evenodd" d="M406.172 166.577C405.704 166.061 396.844 154.227 396.844 154.119C396.844 153.989 406.151 142.051 406.365 141.907C406.47 141.836 407.668 141.777 409.028 141.775C410.981 141.773 411.544 141.826 411.711 142.028C411.828 142.168 411.861 142.382 411.785 142.506C411.709 142.629 409.615 145.116 407.132 148.033C404.65 150.95 402.618 153.447 402.618 153.581C402.618 153.825 403.42 154.885 407.191 159.626C411.824 165.451 412.576 166.459 412.479 166.713C412.397 166.926 411.873 166.971 409.454 166.971C406.643 166.971 406.515 166.956 406.172 166.577Z" fill="#E8E5E0"/>
<path fill-rule="evenodd" clip-rule="evenodd" d="M426.766 167.576C426.14 167.443 424.88 166.959 423.966 166.501C419.695 164.362 417.142 159.956 417.142 154.726C417.142 150.501 418.405 147.298 421.15 144.563C423.638 142.085 426.136 141.029 429.566 141.007C432.636 140.987 434.976 141.985 436.838 144.108C438.224 145.687 438.84 145.409 438.84 143.203C438.84 142.254 438.901 141.962 439.117 141.879C439.269 141.821 440.244 141.773 441.283 141.773C442.663 141.773 443.225 141.837 443.37 142.011C443.513 142.184 443.555 145.613 443.522 154.566L443.477 166.884H441.202H438.928L438.875 165.579C438.789 163.406 438.305 163.288 436.498 165.003C433.918 167.45 430.464 168.363 426.766 167.576ZM432.401 162.752C434.638 162.281 436.684 160.755 437.612 158.864C439.623 154.77 438.575 149.565 435.283 147.298C432.854 145.625 429.011 145.483 426.438 146.97C423.97 148.398 422.635 150.755 422.444 154.022C422.29 156.654 422.949 158.689 424.508 160.394C426.343 162.403 429.532 163.355 432.401 162.752Z" fill="#E8E5E0"/>
<path fill-rule="evenodd" clip-rule="evenodd" d="M449.528 166.725C449.362 166.525 449.904 165.798 452.361 162.919C454.032 160.961 455.537 159.148 455.706 158.89C456.093 158.299 455.867 157.786 455.159 157.645C452.601 157.133 450.527 155.318 449.677 152.849C448.142 148.388 450.385 143.882 454.939 142.273C456.026 141.889 456.348 141.869 462.177 141.808C465.532 141.773 468.466 141.792 468.697 141.85L469.115 141.955L469.07 154.419L469.026 166.884H466.488H463.951L463.863 162.265C463.785 158.114 463.745 157.628 463.47 157.454C463.251 157.316 463.076 157.315 462.857 157.448C462.689 157.551 460.937 159.733 458.964 162.297L455.376 166.958L452.554 166.965C450.335 166.97 449.688 166.919 449.528 166.725ZM463.525 153.841C463.842 153.671 463.863 153.441 463.863 150.188C463.863 147.346 463.817 146.677 463.606 146.502C463.418 146.346 462.503 146.305 460.224 146.349L457.098 146.41L456.239 146.941C455.225 147.569 454.649 148.492 454.493 149.743C454.258 151.621 455.14 153.083 456.866 153.679C457.642 153.947 458.341 154.012 460.506 154.016C462.031 154.019 463.332 153.944 463.525 153.841Z" fill="#E8E5E0"/>
<path fill-rule="evenodd" clip-rule="evenodd" d="M486.443 166.633C486.193 166.165 486.193 142.58 486.443 142.111C486.609 141.803 486.83 141.773 488.974 141.773C491.119 141.773 491.34 141.803 491.506 142.111C491.782 142.628 491.754 166.484 491.477 166.761C491.335 166.903 490.518 166.971 488.946 166.971C486.83 166.971 486.608 166.941 486.443 166.633Z" fill="#E8E5E0"/>
<path fill-rule="evenodd" clip-rule="evenodd" d="M497.128 160.685C494.52 157.222 492.386 154.272 492.386 154.129C492.386 153.985 494.493 151.166 497.069 147.864L501.751 141.86H504.46C506.886 141.86 507.174 141.892 507.226 142.163C507.263 142.354 505.604 144.442 502.723 147.832C499.605 151.501 498.161 153.329 498.161 153.607C498.161 153.876 499.82 156.103 503.062 160.186C505.758 163.581 507.942 166.477 507.916 166.621C507.876 166.84 507.372 166.892 504.869 166.931L501.87 166.979L497.128 160.685Z" fill="#E8E5E0"/>
<path fill-rule="evenodd" clip-rule="evenodd" d="M512.056 166.73C511.968 166.499 521.629 142.486 522.009 141.992C522.246 141.683 526.744 141.683 526.99 141.992C527.376 142.475 537.037 166.467 536.944 166.71C536.861 166.926 536.377 166.971 534.145 166.971H531.446L531.183 166.314C531.039 165.953 529.644 162.193 528.084 157.958C526.523 153.724 525.167 150.161 525.069 150.041C524.839 149.759 524.121 149.758 523.938 150.04C523.86 150.16 522.411 153.999 520.717 158.571L517.638 166.884L514.895 166.932C512.645 166.971 512.135 166.935 512.056 166.73Z" fill="#E8E5E0"/>
<path fill-rule="evenodd" clip-rule="evenodd" d="M663.189 167.498C660.853 166.866 659.417 166.027 657.657 164.266C655.857 162.464 654.871 160.752 654.227 158.309C653.697 156.3 653.696 153.108 654.224 150.96C655.567 145.5 659.67 141.712 664.965 141.043C668.242 140.629 671.053 141.573 673.254 143.827C674.963 145.577 675.424 145.512 675.424 143.521C675.424 141.781 675.468 141.752 677.964 141.811L680.062 141.86V154.372V166.884L677.987 166.933C676.606 166.966 675.83 166.915 675.668 166.781C675.5 166.641 675.424 166.177 675.424 165.291C675.424 164.062 675.404 163.998 674.986 163.893C674.62 163.801 674.36 163.959 673.415 164.842C671.244 166.873 669.337 167.674 666.413 167.78C664.871 167.836 664.229 167.78 663.189 167.498ZM668.969 162.768C670.387 162.499 671.994 161.67 672.929 160.725C674.538 159.1 675.265 157.119 675.26 154.372C675.255 151.747 674.628 149.993 673.09 148.305C670.346 145.295 664.907 145.11 661.856 147.922C660.261 149.392 659.458 151.024 659.153 153.41C658.389 159.385 663.104 163.88 668.969 162.768Z" fill="#E8E5E0"/>
<path fill-rule="evenodd" clip-rule="evenodd" d="M276.358 166.757C276.311 166.634 276.293 160.982 276.318 154.197L276.363 141.86L278.744 141.812C280.59 141.774 281.169 141.817 281.323 142.003C281.464 142.171 281.535 144.58 281.567 150.188L281.613 158.134H282.184C282.74 158.134 282.897 157.927 288.331 149.997L293.908 141.86H296.597H299.287V154.372V166.884L296.793 166.932C295.422 166.959 294.282 166.959 294.26 166.932C294.239 166.906 294.18 163.27 294.129 158.853C294.044 151.454 294.013 150.808 293.731 150.63C293.511 150.491 293.338 150.49 293.119 150.625C292.95 150.729 290.332 154.429 287.3 158.849L281.787 166.884L279.115 166.932C277.074 166.969 276.423 166.928 276.358 166.757Z" fill="#E8E5E0"/>
</svg>
