<svg width="242" height="60" viewBox="0 0 242 60" fill="none" xmlns="http://www.w3.org/2000/svg">
<path fill-rule="evenodd" clip-rule="evenodd" d="M1.927 40.4256H6.11564L11.718 27.4408H29.7291L35.3314 40.4256H39.5201L22.9226 1.68066H18.6292L1.927 40.4256ZM13.2363 23.9328L20.7759 6.18345L28.2107 23.9328H13.2363Z" fill="#D2B589" stroke="black" stroke-width="0.19999"/>
<path fill-rule="evenodd" clip-rule="evenodd" d="M64.7043 1.68066H60.5157L46.0649 36.9176H42.5569V43.9147H46.4314V40.4256H78.7886V43.9147H82.6631V36.9176H79.1551L64.7043 1.68066ZM50.2535 36.9176L62.61 6.65466L74.9665 36.9176H50.2535Z" fill="#D2B589" stroke="black" stroke-width="0.19999"/>
<path fill-rule="evenodd" clip-rule="evenodd" d="M103.293 37.5981C93.9728 37.5981 86.5903 30.8963 86.5903 21.1577C86.5903 11.5238 93.8157 4.50781 103.293 4.50781C112.612 4.50781 119.89 11.2097 119.89 20.8435C119.89 30.5298 112.717 37.5981 103.293 37.5981Z" fill="#D2B589" stroke="black" stroke-width="0.19999"/>
<path fill-rule="evenodd" clip-rule="evenodd" d="M103.659 1C92.1401 1 83.1345 9.53436 83.1345 21.1578C83.1345 32.7813 92.2448 41.1063 103.659 41.1063C115.178 41.1063 124.183 32.4672 124.183 20.8437C124.183 9.32493 115.23 1 103.659 1Z" fill="#D2B589" stroke="#D2B589" stroke-width="2"/>
<path fill-rule="evenodd" clip-rule="evenodd" d="M130.309 40.4256H134.183V22.2574H154.446V40.4256H158.32V1.68066H154.446V18.7494H134.183V1.68066H130.309V40.4256Z" fill="#D2B589" stroke="black" stroke-width="0.19999"/>
<path fill-rule="evenodd" clip-rule="evenodd" d="M166.07 1.68066V40.4256H170.154L193.191 7.17825V40.4256H197.066V1.68066H192.982L169.944 34.928V1.68066H166.07Z" fill="#D2B589" stroke="black" stroke-width="0.19999"/>
<path fill-rule="evenodd" clip-rule="evenodd" d="M241.099 11.5763C237.853 4.87448 231.308 1 223.245 1C212.04 1 203.139 9.42964 203.139 20.9484C203.139 32.7813 212.197 41.1062 223.559 41.1062C231.151 41.1062 237.643 37.0747 241.256 30.3205H236.648C233.507 35.3469 228.271 37.5982 223.559 37.5982C214.344 37.5982 207.014 30.4776 207.014 20.9484C207.014 12.0999 213.558 4.50797 223.297 4.50797C231.622 4.50797 235.444 9.95321 236.491 11.5763H241.099Z" fill="#D2B589" stroke="black" stroke-width="0.19999"/>
<path fill-rule="evenodd" clip-rule="evenodd" d="M95.0925 7.8518C94.1907 8.50514 94.0833 8.80731 93.6694 9.81809C92.7362 12.0978 94.438 16.4624 95.2656 18.736C96.1858 21.2641 97.4156 25.2829 98.7604 27.4499C100.988 31.0386 102.538 25.6184 102.905 24.104C103.087 23.3553 103.733 21.8212 103.752 21.2659C102.102 21.2507 101.532 30.132 99.2043 24.6441C98.0847 22.0046 94.2683 13.0308 96.2687 10.4664C96.3466 10.3665 96.3607 10.2282 96.489 10.1797C96.5597 10.0031 96.9244 9.62736 97.1289 9.61779C97.486 9.17741 98.4176 9.02318 98.9748 9.0474C99.1241 8.63534 103.202 9.65859 103.444 9.61552C103.527 8.65891 97.9376 7.12359 95.5703 7.66015C95.3974 7.69935 95.2815 7.80707 95.0925 7.8518ZM109.977 8.09314C109.82 8.24992 108.446 8.46505 108.041 8.68854C107.291 9.10174 106.484 9.41733 105.773 9.87374C105.672 9.93856 105.536 10.0692 105.399 10.0597C105.284 10.255 104.289 10.7332 104.194 10.7501C104.143 10.9061 103.8 11.0431 103.619 11.0765C103.462 11.3052 102.57 11.7363 102.295 11.7143C102.123 11.8852 101.799 11.8983 101.585 12.0147C101.551 11.995 101.521 11.8956 101.439 12.0225C99.3334 12.1079 99.8128 11.7505 98.772 11.6544C98.8978 14.0594 104.629 12.2866 105.157 11.9438C105.33 11.8311 105.71 11.6594 105.931 11.6446C106.089 11.4539 107.356 11.0039 107.65 10.9613C107.754 10.7096 109.873 10.178 110.507 11.0108C111.56 12.396 110.65 15.7612 110.358 17.4484C109.916 19.9956 108.732 23.1384 108.135 25.7259C107.875 26.8527 108.573 26.5441 108.875 26.0538C109.371 25.2491 111.697 18.6944 112.005 17.2051C112.262 15.9601 112.98 14.3924 113.139 13.1054C113.355 11.3515 114.033 8.66624 111.924 8.18335C111.821 8.15985 111.792 8.14721 111.763 8.11355C111.385 8.1636 110.883 8.03506 110.541 8.03741C110.352 8.03879 110.16 8.09383 109.977 8.09314ZM109.009 28.2958C108.941 28.0052 109.477 27.5194 109.633 27.1799C109.867 26.6722 109.823 25.8671 109.614 25.5186C109.377 25.61 109.681 27.1056 106.24 27.8672C105.564 28.0167 103.342 27.9599 103.089 28.1194C103.947 28.9559 107.065 28.9925 108.434 28.3839C108.592 28.3135 108.56 28.2884 108.765 28.24C108.637 29.8299 105.439 30.0915 104.355 30.1311C104.042 30.1425 103.794 30.0808 103.519 30.0929C103.568 30.6203 107.074 31.2794 108.537 29.9721C109.175 29.4027 108.994 28.8886 109.009 28.2958ZM103.836 34.8217C104.04 35.5043 108.528 35.5235 108.009 32.9337C107.965 32.7122 107.963 32.7038 107.808 32.6319C107.417 33.3083 107.637 34.2953 104.546 34.744C104.351 34.7723 103.992 34.7606 103.836 34.8217ZM105.937 32.3177C105.625 32.6545 104.66 32.5698 104.213 32.6746C104.337 33.2661 107.989 33.2174 108.369 31.5449C108.428 31.2849 108.443 30.6917 108.209 30.4526L108.089 30.4947C107.776 31.6555 107.136 31.9232 106.132 32.2954C106.02 32.3294 106.087 32.3379 105.937 32.3177ZM104.301 37.3501C104.672 37.9161 106.853 37.4328 107.181 36.718C107.319 36.4181 107.413 35.9039 107.165 35.6757C106.35 37.2654 105.258 36.8717 104.301 37.3501Z" fill="black" stroke="black" stroke-width="0.19999"/>
<g filter="url(#filter0_d_231_852)">
<path d="M103.659 2.68799C93.1098 2.68799 84.8623 10.5039 84.8623 21.1489C84.8623 31.7938 93.2057 39.4179 103.659 39.4179C114.208 39.4179 122.455 31.5062 122.455 20.8612C122.455 10.3121 114.256 2.68799 103.659 2.68799Z" stroke="black" stroke-width="2" shape-rendering="crispEdges"/>
</g>
<path d="M8.08866 56.0586C7.59566 56.8134 6.77257 57.165 5.87391 57.165C4.12971 57.165 2.95222 55.874 2.95222 54.1595C2.95222 53.5019 3.14091 52.8489 3.537 52.3192C4.09843 51.5684 4.95053 51.2211 5.87391 51.2211C6.81378 51.2211 7.61063 51.5992 8.09201 52.3888C8.13346 52.4568 8.20188 52.4952 8.28151 52.4952H10.07C10.1467 52.4952 10.2126 52.4598 10.255 52.3959C10.2974 52.3319 10.3043 52.2574 10.2743 52.1867C10.0347 51.6209 9.69297 51.1044 9.249 50.6717C8.34484 49.7905 7.15795 49.3862 5.90744 49.3862C4.47075 49.3862 3.14433 49.8697 2.18756 50.9669C1.43979 51.8245 1 52.9874 1 54.126C1 55.3129 1.43836 56.5151 2.22285 57.4084C3.19401 58.5142 4.5393 58.9999 5.99125 58.9999C7.96041 58.9999 9.47106 57.9804 10.2531 56.2724C10.2855 56.2016 10.2801 56.1256 10.238 56.0601C10.196 55.9946 10.1291 55.958 10.0512 55.958H8.27447C8.19723 55.958 8.13089 55.9939 8.08866 56.0586ZM11.3941 49.91V51.1668C11.3941 51.2891 11.4938 51.3888 11.6161 51.3888H13.4018C13.5241 51.3888 13.6238 51.4885 13.6238 51.6107V58.4762C13.6238 58.5985 13.7235 58.6982 13.8458 58.6982H15.3541C15.4763 58.6982 15.576 58.5985 15.576 58.4762V51.6107C15.576 51.4885 15.6758 51.3888 15.798 51.3888H17.5838C17.706 51.3888 17.8057 51.2891 17.8057 51.1668V49.91C17.8057 49.7877 17.706 49.688 17.5838 49.688H11.6161C11.4938 49.688 11.3941 49.7877 11.3941 49.91ZM23.4936 49.3862C22.1363 49.3862 20.8644 49.9157 19.949 50.925C19.1322 51.8256 18.7035 52.9975 18.7035 54.2099C18.7035 55.3851 19.1145 56.5187 19.8924 57.4027C20.8105 58.4462 22.109 58.9999 23.4936 58.9999C24.8782 58.9999 26.1766 58.4462 27.0948 57.4027C27.8726 56.5187 28.2837 55.3851 28.2837 54.2099C28.2837 52.9975 27.855 51.8257 27.0382 50.9251C26.1228 49.9158 24.8509 49.3862 23.4936 49.3862ZM23.4936 51.2211C24.27 51.2211 24.9864 51.5052 25.5207 52.0739C26.0606 52.6485 26.3314 53.4271 26.3314 54.2099C26.3314 55.8446 25.1679 57.165 23.4936 57.165C21.8192 57.165 20.6557 55.8446 20.6557 54.2099C20.6557 53.4271 20.9265 52.6485 21.4665 52.0739C22.0008 51.5052 22.7172 51.2211 23.4936 51.2211ZM30.1243 58.6982H31.6326C31.7548 58.6982 31.8546 58.5985 31.8546 58.4762V52.4862C31.8546 52.3775 31.931 52.2864 32.038 52.2676C32.1451 52.2487 32.248 52.3082 32.2851 52.4103L34.5185 58.5521C34.551 58.6414 34.632 58.6982 34.7271 58.6982H36.0659C36.1611 58.6982 36.2421 58.6414 36.2746 58.5521L38.5079 52.4103C38.545 52.3082 38.648 52.2487 38.755 52.2675C38.8621 52.2864 38.9385 52.3775 38.9385 52.4862V58.4762C38.9385 58.5985 39.0382 58.6982 39.1604 58.6982H40.6688C40.791 58.6982 40.8907 58.5985 40.8907 58.4762V49.91C40.8907 49.7877 40.791 49.688 40.6688 49.688H38.0467C37.9515 49.688 37.8705 49.7448 37.838 49.8342L35.6052 55.9863C35.5727 56.0758 35.4917 56.1325 35.3965 56.1325C35.3014 56.1325 35.2203 56.0758 35.1879 55.9863L32.955 49.8342C32.9225 49.7448 32.8415 49.688 32.7464 49.688H30.1243C30.002 49.688 29.9023 49.7877 29.9023 49.91V58.4762C29.9023 58.5985 30.002 58.6982 30.1243 58.6982ZM51.7334 49.688H50.4096C50.2873 49.688 50.1876 49.7877 50.1876 49.91V50.634C50.1876 50.7322 50.1268 50.8155 50.0333 50.8454C49.9398 50.8753 49.8419 50.8428 49.7849 50.7628C49.1192 49.8287 48.1472 49.3862 46.9809 49.3862C46.1873 49.3862 45.418 49.5955 44.7394 50.0084C44.0535 50.4258 43.5039 51.0246 43.1244 51.7304C42.7036 52.513 42.5094 53.3911 42.5094 54.2769C42.5094 55.2793 42.7605 56.2605 43.326 57.0954C43.8202 57.825 44.5188 58.3855 45.3402 58.7051C45.8417 58.9002 46.3758 58.9999 46.9139 58.9999C47.349 58.9999 47.788 58.9267 48.1983 58.7816C48.8379 58.5553 49.3727 58.1672 49.7924 57.6431C49.8524 57.5682 49.9486 57.5406 50.0392 57.5724C50.1297 57.6042 50.1876 57.6859 50.1876 57.7818V58.4762C50.1876 58.5985 50.2873 58.6982 50.4096 58.6982H51.7334C51.8557 58.6982 51.9554 58.5985 51.9554 58.4762V49.91C51.9554 49.7877 51.8557 49.688 51.7334 49.688ZM47.333 51.2211C49.041 51.2211 50.1373 52.514 50.1373 54.1763C50.1373 55.0623 49.8467 55.9387 49.1593 56.5276C48.6464 56.9669 48.0026 57.165 47.333 57.165C45.6514 57.165 44.4616 55.951 44.4616 54.2769C44.4616 53.3629 44.7905 52.4662 45.5005 51.8671C46.0177 51.4307 46.6598 51.2211 47.333 51.2211ZM53.3058 49.91V51.1668C53.3058 51.2891 53.4055 51.3888 53.5278 51.3888H55.3136C55.4358 51.3888 55.5355 51.4885 55.5355 51.6107V58.4762C55.5355 58.5985 55.6352 58.6982 55.7575 58.6982H57.2658C57.388 58.6982 57.4877 58.5985 57.4877 58.4762V51.6107C57.4877 51.4885 57.5875 51.3888 57.7097 51.3888H59.4955C59.6177 51.3888 59.7174 51.2891 59.7174 51.1668V49.91C59.7174 49.7877 59.6177 49.688 59.4955 49.688H53.5278C53.4055 49.688 53.3058 49.7877 53.3058 49.91ZM65.4053 49.3862C64.048 49.3862 62.7761 49.9158 61.8607 50.9251C61.0439 51.8257 60.6152 52.9975 60.6152 54.2099C60.6152 55.3851 61.0262 56.5187 61.8041 57.4027C62.7222 58.4461 64.0207 58.9999 65.4053 58.9999C66.7899 58.9999 68.0883 58.4462 69.0065 57.4027C69.7844 56.5187 70.1954 55.3851 70.1954 54.2099C70.1954 52.9975 69.7667 51.8256 68.9499 50.925C68.0345 49.9157 66.7625 49.3862 65.4053 49.3862ZM65.4053 51.2211C66.1817 51.2211 66.8981 51.5052 67.4324 52.0739C67.9723 52.6485 68.2431 53.4271 68.2431 54.2099C68.2431 55.8446 67.0796 57.165 65.4053 57.165C63.7309 57.165 62.5674 55.8446 62.5674 54.2099C62.5674 53.4271 62.8382 52.6485 63.3781 52.0739C63.9125 51.5052 64.6289 51.2211 65.4053 51.2211ZM76.3952 49.688H74.8683C74.7762 49.688 74.6976 49.7408 74.6628 49.8261L71.1682 58.3924C71.1394 58.4629 71.147 58.5368 71.1895 58.6C71.232 58.6632 71.2976 58.6982 71.3738 58.6982H73.0669C73.1616 58.6982 73.2423 58.6419 73.2751 58.5531L75.4235 52.7305C75.4563 52.6416 75.537 52.5854 75.6318 52.5854C75.7265 52.5854 75.8072 52.6416 75.84 52.7305L77.9884 58.5531C78.0212 58.6419 78.1019 58.6982 78.1967 58.6982H79.8898C79.9659 58.6982 80.0315 58.6632 80.074 58.6C80.1165 58.5368 80.124 58.4629 80.0953 58.3924L76.6007 49.8261C76.5659 49.7408 76.4873 49.688 76.3952 49.688ZM85.8582 49.3862C84.501 49.3862 83.229 49.9157 82.3136 50.925C81.4968 51.8256 81.0681 52.9975 81.0681 54.2099C81.0681 55.3851 81.4792 56.5187 82.257 57.4027C83.1752 58.4462 84.4736 58.9999 85.8582 58.9999C87.2428 58.9999 88.5413 58.4461 89.4594 57.4027C90.2373 56.5187 90.6483 55.3851 90.6483 54.2099C90.6483 52.9975 90.2196 51.8257 89.4028 50.9251C88.4874 49.9158 87.2155 49.3862 85.8582 49.3862ZM85.8582 51.2211C86.6346 51.2211 87.351 51.5052 87.8853 52.0739C88.4252 52.6485 88.6961 53.4271 88.6961 54.2099C88.6961 55.8446 87.5326 57.165 85.8582 57.165C84.1838 57.165 83.0204 55.8446 83.0204 54.2099C83.0204 53.4271 83.2912 52.6485 83.8311 52.0739C84.3654 51.5052 85.0818 51.2211 85.8582 51.2211ZM92.2669 49.91V58.4762C92.2669 58.5985 92.3667 58.6982 92.4889 58.6982H93.9972C94.1195 58.6982 94.2192 58.5985 94.2192 58.4762V51.6107C94.2192 51.4885 94.3189 51.3888 94.4411 51.3888H97.0316C97.1539 51.3888 97.2536 51.2891 97.2536 51.1668V49.91C97.2536 49.7877 97.1539 49.688 97.0316 49.688H92.4889C92.3667 49.688 92.2669 49.7877 92.2669 49.91ZM98.6375 49.91V58.4762C98.6375 58.5985 98.7372 58.6982 98.8595 58.6982H100.538C100.614 58.6982 100.679 58.6639 100.721 58.6017L104.586 52.9616C104.642 52.8801 104.741 52.8458 104.835 52.8751C104.929 52.9043 104.991 52.9882 104.991 53.0871V58.4762C104.991 58.5985 105.091 58.6982 105.213 58.6982H106.722C106.844 58.6982 106.944 58.5985 106.944 58.4762V49.91C106.944 49.7877 106.844 49.688 106.722 49.688H105.043C104.967 49.688 104.902 49.7222 104.86 49.7845L100.995 55.4245C100.939 55.5061 100.841 55.5403 100.746 55.5111C100.652 55.4818 100.59 55.3979 100.59 55.299V49.91C100.59 49.7877 100.49 49.688 100.368 49.688H98.8595C98.7372 49.688 98.6375 49.7877 98.6375 49.91ZM115.439 49.688H113.931C113.809 49.688 113.709 49.7877 113.709 49.91V53.5901C113.709 53.7124 113.609 53.8121 113.487 53.8121H112.263C111.649 53.8121 110.99 53.6738 110.769 53.0242C110.676 52.7516 110.682 52.4651 110.682 52.1813V49.91C110.682 49.7877 110.582 49.688 110.46 49.688H108.952C108.83 49.688 108.73 49.7877 108.73 49.91V52.1813C108.73 52.5386 108.716 52.8907 108.751 53.2476C108.788 53.6248 108.877 53.9952 109.075 54.3226C109.698 55.3559 111.178 55.5129 112.263 55.5129H113.487C113.609 55.5129 113.709 55.6126 113.709 55.7348V58.4762C113.709 58.5985 113.809 58.6982 113.931 58.6982H115.439C115.561 58.6982 115.661 58.5985 115.661 58.4762V49.91C115.661 49.7877 115.561 49.688 115.439 49.688ZM126.779 54.8363C126.793 54.6226 126.793 54.4086 126.793 54.1931C126.793 51.4958 124.903 49.3862 122.154 49.3862C120.72 49.3862 119.449 49.9342 118.53 51.0439C117.805 51.9206 117.347 53.1179 117.347 54.2601C117.347 55.387 117.79 56.5514 118.519 57.4079C119.439 58.4903 120.711 58.9999 122.12 58.9999C122.763 58.9999 123.427 58.8687 124.021 58.6248C125.009 58.2185 125.749 57.5275 126.249 56.6227C126.289 56.552 126.288 56.4721 126.246 56.4025C126.205 56.3329 126.136 56.2933 126.055 56.2933H124.278C124.214 56.2933 124.16 56.3168 124.116 56.3629C123.575 56.9369 122.82 57.165 122.036 57.165C120.836 57.165 119.839 56.4762 119.501 55.328C119.481 55.2587 119.493 55.1903 119.537 55.1324C119.58 55.0746 119.642 55.0435 119.714 55.0435H126.557C126.674 55.0435 126.771 54.9531 126.779 54.8363ZM119.483 53.0419C119.909 51.92 120.942 51.2211 122.154 51.2211C123.35 51.2211 124.343 51.9178 124.702 53.0539C124.724 53.1236 124.712 53.1931 124.669 53.252C124.626 53.3109 124.563 53.3427 124.49 53.3427H119.69C119.615 53.3427 119.55 53.3087 119.507 53.2468C119.465 53.1848 119.456 53.1122 119.483 53.0419ZM135.165 56.0586C134.672 56.8134 133.849 57.165 132.95 57.165C131.206 57.165 130.029 55.874 130.029 54.1595C130.029 53.5019 130.217 52.8489 130.613 52.3192C131.175 51.5684 132.027 51.2211 132.95 51.2211C133.89 51.2211 134.687 51.5992 135.168 52.3888C135.21 52.4568 135.278 52.4952 135.358 52.4952H137.146C137.223 52.4952 137.289 52.4598 137.331 52.3959C137.374 52.3319 137.381 52.2574 137.351 52.1867C137.111 51.6209 136.769 51.1044 136.325 50.6717C135.421 49.7905 134.234 49.3862 132.984 49.3862C131.547 49.3862 130.221 49.8697 129.264 50.9669C128.516 51.8245 128.076 52.9874 128.076 54.126C128.076 55.3129 128.515 56.5151 129.299 57.4084C130.27 58.5142 131.616 58.9999 133.068 58.9999C135.037 58.9999 136.547 57.9804 137.329 56.2724C137.362 56.2016 137.356 56.1256 137.314 56.0601C137.272 55.9946 137.205 55.958 137.128 55.958H135.351C135.274 55.958 135.207 55.9939 135.165 56.0586ZM139.43 58.6982H140.938C141.061 58.6982 141.16 58.5985 141.16 58.4762V49.91C141.16 49.7877 141.061 49.688 140.938 49.688H139.43C139.308 49.688 139.208 49.7877 139.208 49.91V58.4762C139.208 58.5985 139.308 58.6982 139.43 58.6982ZM141.358 54.2247L144.655 58.6096C144.698 58.6672 144.76 58.6982 144.832 58.6982H146.722C146.81 58.6982 146.884 58.6513 146.922 58.5728C146.96 58.4943 146.95 58.4067 146.896 58.3383L143.496 54.0478C143.43 53.964 143.432 53.8477 143.501 53.7662L146.656 50.0537C146.714 49.9862 146.726 49.8972 146.689 49.8168C146.652 49.7364 146.576 49.688 146.487 49.688H144.795C144.724 49.688 144.663 49.7177 144.62 49.7735L141.36 53.9548C141.298 54.0351 141.297 54.1434 141.358 54.2247ZM157.686 49.688H156.362C156.24 49.688 156.14 49.7877 156.14 49.91V50.634C156.14 50.7322 156.08 50.8155 155.986 50.8454C155.893 50.8753 155.795 50.8428 155.738 50.7628C155.072 49.8287 154.1 49.3862 152.934 49.3862C152.14 49.3862 151.371 49.5956 150.692 50.0085C150.006 50.4258 149.457 51.0246 149.077 51.7304C148.656 52.5131 148.462 53.3911 148.462 54.2769C148.462 55.2793 148.713 56.2605 149.279 57.0955C149.773 57.8251 150.472 58.3855 151.293 58.7051C151.795 58.9002 152.329 58.9999 152.867 58.9999C153.302 58.9999 153.741 58.9267 154.151 58.7816C154.791 58.5553 155.325 58.1672 155.745 57.6431C155.805 57.5682 155.901 57.5406 155.992 57.5724C156.082 57.6042 156.14 57.6858 156.14 57.7818V58.4762C156.14 58.5985 156.24 58.6982 156.362 58.6982H157.686C157.808 58.6982 157.908 58.5985 157.908 58.4762V49.91C157.908 49.7877 157.808 49.688 157.686 49.688ZM153.286 51.2211C154.994 51.2211 156.09 52.514 156.09 54.1763C156.09 55.0623 155.8 55.9387 155.112 56.5276C154.599 56.9669 153.955 57.165 153.286 57.165C151.604 57.165 150.414 55.951 150.414 54.2769C150.414 53.3629 150.743 52.4662 151.453 51.8671C151.97 51.4307 152.613 51.2211 153.286 51.2211ZM166.739 49.688H163.06C162.355 49.688 161.654 49.8478 161.064 50.2448C160.57 50.5769 160.2 51.0469 159.994 51.6047C159.872 51.9339 159.812 52.2832 159.812 52.634C159.812 54.0213 160.636 55.162 162.013 55.3931C162.094 55.4067 162.157 55.4588 162.185 55.536C162.213 55.6131 162.198 55.6934 162.145 55.7559L159.95 58.3323C159.893 58.3997 159.88 58.4888 159.917 58.5693C159.955 58.6497 160.03 58.6982 160.119 58.6982H161.943C162.014 58.6982 162.076 58.668 162.119 58.6116L164.611 55.3752C164.67 55.2985 164.767 55.2693 164.858 55.3005C164.95 55.3316 165.009 55.4138 165.009 55.5106V58.4762C165.009 58.5985 165.109 58.6982 165.231 58.6982H166.739C166.861 58.6982 166.961 58.5985 166.961 58.4762V49.91C166.961 49.7877 166.861 49.688 166.739 49.688ZM164.787 53.9965H163.143C162.39 53.9965 161.764 53.5521 161.764 52.7513C161.764 51.9185 162.314 51.3888 163.143 51.3888H164.787C164.909 51.3888 165.009 51.4885 165.009 51.6107V53.7746C165.009 53.8968 164.909 53.9965 164.787 53.9965ZM173.177 58.6982H174.686C174.808 58.6982 174.908 58.5985 174.908 58.4762V49.91C174.908 49.7877 174.808 49.688 174.686 49.688H173.177C173.055 49.688 172.955 49.7877 172.955 49.91V58.4762C172.955 58.5985 173.055 58.6982 173.177 58.6982ZM175.105 54.2247L178.402 58.6096C178.445 58.6672 178.507 58.6982 178.579 58.6982H180.47C180.557 58.6982 180.631 58.6513 180.669 58.5728C180.707 58.4943 180.698 58.4067 180.644 58.3383L177.243 54.0478C177.177 53.964 177.179 53.8477 177.248 53.7662L180.404 50.0537C180.461 49.9862 180.473 49.8972 180.436 49.8168C180.399 49.7364 180.323 49.688 180.235 49.688H178.542C178.471 49.688 178.41 49.7177 178.367 49.7735L175.107 53.9548C175.045 54.0351 175.044 54.1434 175.105 54.2247ZM187.26 49.688H185.733C185.641 49.688 185.562 49.7408 185.528 49.8261L182.033 58.3924C182.004 58.4629 182.012 58.5368 182.054 58.6C182.097 58.6632 182.162 58.6982 182.239 58.6982H183.932C184.026 58.6982 184.107 58.6419 184.14 58.5531L186.288 52.7305C186.321 52.6417 186.402 52.5854 186.497 52.5854C186.591 52.5854 186.672 52.6417 186.705 52.7305L188.853 58.5531C188.886 58.6419 188.967 58.6982 189.061 58.6982H190.755C190.831 58.6982 190.896 58.6632 190.939 58.6C190.981 58.5368 190.989 58.4629 190.96 58.3924L187.466 49.8261C187.431 49.7408 187.352 49.688 187.26 49.688ZM192.402 49.91V58.4762C192.402 58.5985 192.502 58.6982 192.624 58.6982H194.303C194.379 58.6982 194.444 58.6639 194.486 58.6017L198.351 52.9616C198.407 52.8801 198.505 52.8458 198.6 52.8751C198.694 52.9043 198.756 52.9882 198.756 53.0871V58.4762C198.756 58.5985 198.856 58.6982 198.978 58.6982H200.486C200.609 58.6982 200.708 58.5985 200.708 58.4762V49.91C200.708 49.7877 200.609 49.688 200.486 49.688H198.808C198.732 49.688 198.667 49.7222 198.624 49.7845L194.76 55.4245C194.704 55.5061 194.605 55.5403 194.511 55.5111C194.416 55.4818 194.355 55.3979 194.355 55.299V49.91C194.355 49.7877 194.255 49.688 194.133 49.688H192.624C192.502 49.688 192.402 49.7877 192.402 49.91ZM202.796 49.91V58.4762C202.796 58.5985 202.896 58.6982 203.018 58.6982H204.527C204.649 58.6982 204.749 58.5985 204.749 58.4762V55.0307C204.749 54.9085 204.848 54.8088 204.971 54.8088H208.258C208.38 54.8088 208.48 54.9085 208.48 55.0307V58.4762C208.48 58.5985 208.579 58.6982 208.702 58.6982H210.21C210.332 58.6982 210.432 58.5985 210.432 58.4762V49.91C210.432 49.7877 210.332 49.688 210.21 49.688H208.702C208.579 49.688 208.48 49.7877 208.48 49.91V52.886C208.48 53.0083 208.38 53.108 208.258 53.108H204.971C204.848 53.108 204.749 53.0083 204.749 52.886V49.91C204.749 49.7877 204.649 49.688 204.527 49.688H203.018C202.896 49.688 202.796 49.7877 202.796 49.91ZM212.52 49.91V58.4762C212.52 58.5985 212.62 58.6982 212.742 58.6982H214.421C214.496 58.6982 214.561 58.6639 214.604 58.6017L218.469 52.9616C218.525 52.8801 218.623 52.8458 218.717 52.8751C218.812 52.9043 218.874 52.9882 218.874 53.0871V58.4762C218.874 58.5985 218.974 58.6982 219.096 58.6982H220.604C220.726 58.6982 220.826 58.5985 220.826 58.4762V49.91C220.826 49.7877 220.726 49.688 220.604 49.688H218.925C218.85 49.688 218.785 49.7222 218.742 49.7845L214.877 55.4245C214.821 55.5061 214.723 55.5403 214.629 55.5111C214.534 55.4818 214.472 55.3979 214.472 55.299V49.91C214.472 49.7877 214.373 49.688 214.25 49.688H212.742C212.62 49.688 212.52 49.7877 212.52 49.91ZM223.136 58.6982H224.644C224.767 58.6982 224.866 58.5985 224.866 58.4762V49.91C224.866 49.7877 224.767 49.688 224.644 49.688H223.136C223.014 49.688 222.914 49.7877 222.914 49.91V58.4762C222.914 58.5985 223.014 58.6982 223.136 58.6982ZM225.064 54.2247L228.361 58.6096C228.404 58.6672 228.466 58.6982 228.538 58.6982H230.428C230.516 58.6982 230.59 58.6513 230.628 58.5728C230.666 58.4943 230.656 58.4067 230.602 58.3383L227.202 54.0478C227.136 53.964 227.138 53.8477 227.207 53.7662L230.362 50.0537C230.42 49.9863 230.432 49.8972 230.395 49.8168C230.358 49.7364 230.282 49.688 230.193 49.688H228.501C228.43 49.688 228.369 49.7177 228.326 49.7735L225.066 53.9548C225.004 54.0351 225.003 54.1434 225.064 54.2247ZM241.392 49.688H240.068C239.946 49.688 239.846 49.7877 239.846 49.91V50.634C239.846 50.7321 239.786 50.8155 239.692 50.8454C239.599 50.8753 239.501 50.8428 239.444 50.7628C238.778 49.8287 237.806 49.3862 236.64 49.3862C235.846 49.3862 235.077 49.5956 234.398 50.0085C233.712 50.4258 233.163 51.0246 232.783 51.7304C232.362 52.5131 232.168 53.3911 232.168 54.2769C232.168 55.2793 232.419 56.2605 232.985 57.0954C233.479 57.825 234.178 58.3855 234.999 58.7051C235.501 58.9002 236.035 58.9999 236.573 58.9999C237.008 58.9999 237.447 58.9267 237.857 58.7816C238.497 58.5553 239.031 58.1672 239.451 57.6431C239.511 57.5682 239.607 57.5406 239.698 57.5724C239.789 57.6042 239.846 57.6858 239.846 57.7818V58.4762C239.846 58.5985 239.946 58.6982 240.068 58.6982H241.392C241.515 58.6982 241.614 58.5985 241.614 58.4762V49.91C241.614 49.7877 241.515 49.688 241.392 49.688ZM236.992 51.2211C238.7 51.2211 239.796 52.514 239.796 54.1763C239.796 55.0622 239.506 55.9387 238.818 56.5276C238.305 56.967 237.661 57.165 236.992 57.165C235.31 57.165 234.12 55.951 234.12 54.2769C234.12 53.3629 234.449 52.4662 235.159 51.8671C235.677 51.4307 236.319 51.2211 236.992 51.2211Z" stroke="black" stroke-width="0.19999"/>
<path fill-rule="evenodd" clip-rule="evenodd" d="M226.761 56.3404L225.075 54.087L225.77 53.1854C226.151 52.6896 226.924 51.7036 227.486 50.9945L228.509 49.7051L229.303 49.7068C229.74 49.7077 230.163 49.75 230.243 49.8007C230.351 49.8689 229.956 50.4025 228.735 51.8386C227.825 52.9087 227.081 53.8417 227.082 53.912C227.082 53.9822 227.871 55.0273 228.833 56.2344C229.795 57.4415 230.584 58.4661 230.587 58.5114C230.59 58.5566 230.109 58.5937 229.52 58.5937H228.448L226.761 56.3404Z" fill="#D2B589"/>
<path fill-rule="evenodd" clip-rule="evenodd" d="M223.046 54.1766L223.075 49.7598H223.898H224.721L224.749 54.1766L224.778 58.5935H223.898H223.017L223.046 54.1766Z" fill="#D2B589"/>
<path fill-rule="evenodd" clip-rule="evenodd" d="M212.621 54.1767L212.65 49.7598H213.473H214.296L214.351 52.5802C214.407 55.4899 214.464 55.8368 214.832 55.5312C214.921 55.4575 215.845 54.1534 216.886 52.6333C217.927 51.1133 218.832 49.8322 218.897 49.7865C218.961 49.7409 219.385 49.7162 219.838 49.7317L220.661 49.7598L220.689 54.1767L220.718 58.5936H219.841H218.963L218.934 55.713C218.906 52.9153 218.899 52.8324 218.685 52.8324C218.522 52.8324 217.964 53.564 216.491 55.7122L214.515 58.5919L213.554 58.5927L212.593 58.5936L212.621 54.1767Z" fill="#D2B589"/>
<path fill-rule="evenodd" clip-rule="evenodd" d="M202.902 58.5203C202.861 58.4801 202.829 56.5101 202.829 54.1426C202.829 49.2861 202.741 49.7049 203.761 49.7049C204.738 49.7049 204.694 49.6221 204.694 51.4606C204.694 52.839 204.72 53.0932 204.868 53.1498C205.094 53.2366 208.135 53.2366 208.361 53.1498C208.509 53.0932 208.535 52.839 208.535 51.4606C208.535 50.0823 208.561 49.8281 208.708 49.7715C208.96 49.6748 210.102 49.6929 210.264 49.7961C210.373 49.865 210.397 50.8223 210.374 54.2113L210.345 58.5386L209.443 58.5704L208.54 58.6023L208.51 56.7049L208.48 54.8076H206.614H204.749L204.719 56.7005L204.689 58.5935H203.832C203.361 58.5935 202.942 58.5605 202.902 58.5203Z" fill="#D2B589"/>
<path fill-rule="evenodd" clip-rule="evenodd" d="M192.539 54.1812L192.568 49.76H193.391H194.214L194.243 52.5738C194.269 54.994 194.297 55.4079 194.448 55.5331C194.672 55.7192 194.606 55.8028 196.811 52.5676C197.782 51.1441 198.656 49.9159 198.754 49.8382C198.872 49.7439 199.205 49.7074 199.755 49.7284L200.579 49.76L200.607 54.1769L200.636 58.5937H199.757H198.878V55.8713C198.878 53.7719 198.844 53.103 198.731 52.9482C198.65 52.8378 198.529 52.7667 198.462 52.7901C198.395 52.8135 197.46 54.1165 196.385 55.6857L194.431 58.5389L193.471 58.5706L192.511 58.6023L192.539 54.1812Z" fill="#D2B589"/>
<path fill-rule="evenodd" clip-rule="evenodd" d="M22.5168 58.8561C20.7623 58.4898 19.3827 57.1777 18.8982 55.4146C18.7277 54.794 18.7407 53.5523 18.9245 52.9153C19.4007 51.2646 20.6453 50.0245 22.2604 49.5916C22.9619 49.4035 24.0523 49.4038 24.7227 49.592C26.843 50.1875 28.2172 51.9985 28.2188 54.1991C28.2194 55.0067 28.0876 55.5641 27.7118 56.3439C27.4368 56.9145 27.3328 57.0579 26.8348 57.5532C26.219 58.1657 25.6638 58.5027 24.8464 58.7604C24.2932 58.9347 23.1239 58.9828 22.5168 58.8561ZM24.0799 57.1506C24.8602 57.005 25.6597 56.411 26.0066 55.7193C26.7949 54.147 26.2352 52.1993 24.7897 51.4849C24.017 51.103 23.0078 51.0945 22.2351 51.4632C20.4926 52.2948 20.0606 54.881 21.4234 56.322C21.8234 56.7449 22.1834 56.9626 22.7114 57.1006C23.178 57.2226 23.6099 57.2384 24.0799 57.1506Z" fill="#D2B589"/>
<path fill-rule="evenodd" clip-rule="evenodd" d="M29.995 58.5964C29.9714 58.5728 29.9521 56.6004 29.9521 54.2132C29.9521 50.92 29.9701 49.855 30.0264 49.7987C30.1383 49.6868 32.7585 49.694 32.8518 49.8064C32.8892 49.8515 33.4308 51.2927 34.0552 53.009L35.1905 56.1296H35.399H35.6074L36.7371 53.0148C37.3585 51.3016 37.8996 49.8604 37.9397 49.8122C38.0444 49.686 40.6705 49.6827 40.7751 49.8086C40.8259 49.8699 40.8406 51.0825 40.829 54.249L40.8132 58.6051H39.9158H39.0185L38.9875 55.4621C38.9609 52.7586 38.9436 52.3109 38.8637 52.2604C38.7278 52.1746 38.6469 52.1866 38.5418 52.3082C38.4903 52.3677 37.9531 53.7811 37.3481 55.4489C36.743 57.1167 36.2348 58.5161 36.2187 58.5587C36.1974 58.615 35.9743 58.636 35.3981 58.636C34.822 58.636 34.5989 58.615 34.5776 58.5587C34.5614 58.5161 34.0532 57.1167 33.4482 55.4489C32.8432 53.7811 32.306 52.3677 32.2545 52.3082C32.1493 52.1866 32.0684 52.1746 31.9325 52.2604C31.8527 52.3109 31.8353 52.7586 31.8087 55.4621L31.7778 58.6051L30.9079 58.6222C30.4294 58.6316 30.0186 58.62 29.995 58.5964Z" fill="#D2B589"/>
<path fill-rule="evenodd" clip-rule="evenodd" d="M45.9803 58.8498C45.759 58.8025 45.314 58.6332 44.9914 58.4737C43.9314 57.9498 43.1559 57.0056 42.7612 55.7587C42.5668 55.1447 42.5212 53.9038 42.6665 53.1854C43.0313 51.3818 44.2634 50.011 45.9194 49.566C46.521 49.4043 47.5023 49.4131 48.056 49.5851C48.6183 49.7598 49.1615 50.1138 49.5398 50.552C49.841 50.9008 50.0585 50.9946 50.1694 50.8233C50.1969 50.7807 50.2334 50.5231 50.2504 50.2508L50.2813 49.7557L51.0152 49.7382C51.5033 49.7266 51.7779 49.7447 51.8352 49.7922C51.9073 49.8521 51.9212 50.566 51.9204 54.1727C51.9198 56.5426 51.8968 58.5174 51.8691 58.561C51.8315 58.6202 51.6234 58.6359 51.05 58.6229L50.2813 58.6054L50.2504 58.1413C50.2334 57.886 50.1969 57.6423 50.1694 57.5998C50.0635 57.4363 49.8516 57.5328 49.4221 57.9402C48.5095 58.8058 47.2854 59.1293 45.9803 58.8498ZM47.973 57.144C48.4917 57.0349 48.9537 56.7852 49.3261 56.4126C50.5969 55.1411 50.4223 52.6636 48.9923 51.6787C48.53 51.3603 47.9909 51.2052 47.3436 51.2043C45.6136 51.202 44.4311 52.4482 44.4338 54.271C44.4351 55.1195 44.6661 55.7463 45.188 56.3173C45.8353 57.0256 46.9554 57.3581 47.973 57.144Z" fill="#D2B589"/>
<path fill-rule="evenodd" clip-rule="evenodd" d="M55.6155 58.5966C55.5919 58.5731 55.5726 56.9627 55.5726 55.018C55.5726 52.3505 55.5544 51.464 55.4984 51.408C55.4467 51.3563 55.1189 51.3337 54.422 51.3337C53.5653 51.3337 53.4144 51.3195 53.3823 51.2358C53.3111 51.0504 53.3411 49.8768 53.419 49.7989C53.5058 49.7122 59.4463 49.691 59.5818 49.777C59.6409 49.8144 59.6567 50.0165 59.6437 50.5651L59.6262 51.3028L58.5945 51.3337C58.0271 51.3507 57.5398 51.3879 57.5115 51.4162C57.4833 51.4445 57.4462 53.0737 57.4292 55.0365L57.3983 58.6053L56.5283 58.6224C56.0499 58.6318 55.6391 58.6202 55.6155 58.5966Z" fill="#D2B589"/>
<path fill-rule="evenodd" clip-rule="evenodd" d="M64.3954 58.8474C62.9445 58.5231 61.8366 57.6607 61.1682 56.3353C60.5985 55.2056 60.5143 53.945 60.9225 52.6579C61.1504 51.9392 61.4692 51.4383 62.1059 50.7985C62.5852 50.3169 62.7561 50.1903 63.2519 49.9497C64.4853 49.3511 65.7646 49.2724 67.0228 49.7177C67.7285 49.9674 68.1607 50.2467 68.7573 50.8385C69.2153 51.2929 69.3307 51.4531 69.6046 52.0144C69.9995 52.8236 70.1322 53.3891 70.1277 54.2423C70.1163 56.3832 68.7146 58.2332 66.6814 58.7906C66.1453 58.9375 64.9333 58.9677 64.3954 58.8474ZM65.9722 57.1504C67.3559 56.888 68.2595 55.7288 68.2595 54.2161C68.2595 53.3178 68.0023 52.6299 67.447 52.0427C67.1242 51.7014 66.6082 51.3913 66.1682 51.2743C65.7434 51.1614 64.9415 51.1866 64.4898 51.3272C62.9653 51.8017 62.148 53.5956 62.6995 55.2564C63.162 56.649 64.5082 57.4281 65.9722 57.1504Z" fill="#D2B589"/>
<path fill-rule="evenodd" clip-rule="evenodd" d="M71.2449 58.5586C71.2009 58.5037 71.6906 57.2381 72.9344 54.1922C73.8977 51.8333 74.7199 49.8622 74.7615 49.8121C74.8226 49.7384 74.9976 49.7243 75.6767 49.7382L76.5163 49.7553L78.2936 54.1087C79.2712 56.5031 80.056 58.5013 80.0377 58.5491C80.011 58.6185 79.812 58.636 79.0485 58.636H78.0928L78.0026 58.4202C77.953 58.3015 77.4783 57.0274 76.9477 55.5889C75.7109 52.2358 75.8541 52.5589 75.6147 52.5826L75.4172 52.6021L74.3291 55.5419C73.7307 57.1588 73.2185 58.5164 73.191 58.5588C73.1198 58.6685 71.3327 58.6682 71.2449 58.5586Z" fill="#D2B589"/>
<path fill-rule="evenodd" clip-rule="evenodd" d="M5.02204 58.8799C3.44873 58.5999 2.20421 57.6606 1.54204 56.2534C1.22881 55.5877 1.11412 55.1351 1.07095 54.3943C0.970704 52.6741 1.85431 50.9756 3.30287 50.1041C4.3687 49.4628 5.90459 49.2675 7.22659 49.6053C8.4439 49.9163 9.65078 50.918 10.1491 52.031C10.3279 52.4304 10.2876 52.4474 9.15891 52.4474H8.18453L8.02175 52.2014C7.59644 51.5587 6.83075 51.204 5.86862 51.204C4.9291 51.204 4.25244 51.4719 3.6999 52.0626C2.60297 53.2353 2.6568 55.3166 3.81233 56.4094C4.99583 57.5288 7.02689 57.4583 8.00204 56.2642L8.23826 55.9749H9.15483C10.3025 55.9749 10.3296 55.9928 10.0366 56.5579C9.47687 57.6375 8.45001 58.4664 7.27074 58.7907C6.8291 58.9121 5.49944 58.9649 5.02204 58.8799Z" fill="#D2B589"/>
<path fill-rule="evenodd" clip-rule="evenodd" d="M13.7187 58.5966C13.6951 58.573 13.6753 56.978 13.6748 55.052C13.6743 52.9595 13.6503 51.513 13.6153 51.4575C13.5685 51.3831 13.3499 51.3585 12.5178 51.3337L11.4788 51.3028L11.4613 50.5651C11.4483 50.0165 11.4641 49.8144 11.5232 49.777C11.5669 49.7492 12.9568 49.7261 14.612 49.7256C17.1097 49.7248 17.6335 49.7393 17.6929 49.8109C17.7402 49.868 17.7585 50.1347 17.7469 50.5999L17.7293 51.3028L16.6991 51.3197C15.9387 51.3322 15.6511 51.358 15.6011 51.4183C15.5542 51.4748 15.5285 52.5927 15.5174 55.0526L15.5014 58.6053L14.6315 58.6224C14.153 58.6318 13.7422 58.6202 13.7187 58.5966Z" fill="#D2B589"/>
<path fill-rule="evenodd" clip-rule="evenodd" d="M84.9732 58.8782C84.0163 58.6905 83.2373 58.2704 82.5161 57.5531C82.0181 57.0578 81.9141 56.9144 81.6391 56.3438C81.2633 55.564 81.1315 55.0066 81.1321 54.199C81.1336 51.9984 82.5079 50.1874 84.6282 49.5919C85.2945 49.4047 86.3894 49.4035 87.0811 49.589C88.3727 49.9355 89.4274 50.7785 90.04 51.9541C91.5241 54.802 89.8932 58.2617 86.7863 58.8561C86.279 58.9532 85.4094 58.9638 84.9732 58.8782ZM86.5723 57.1173C87.1172 56.9889 87.506 56.7626 87.9103 56.3388C89.2929 54.8892 88.8693 52.3 87.1123 51.4614C86.342 51.0938 85.3321 51.1037 84.5575 51.4866C82.824 52.3433 82.4363 54.9593 83.8326 56.3781C84.5256 57.0823 85.5491 57.3585 86.5723 57.1173Z" fill="#D2B589"/>
<path fill-rule="evenodd" clip-rule="evenodd" d="M92.3613 58.5586C92.3451 58.516 92.339 56.5179 92.3478 54.1182L92.3638 49.7553L94.7082 49.739C96.3872 49.7274 97.0767 49.7427 97.1373 49.793C97.249 49.8858 97.258 51.1487 97.1476 51.2591C97.0943 51.3124 96.6869 51.3334 95.7057 51.3334C94.7244 51.3334 94.317 51.3543 94.2637 51.4076C94.2077 51.4636 94.1894 52.3375 94.1894 54.961C94.1894 56.8745 94.1725 58.4842 94.1519 58.538C94.1201 58.6208 93.9813 58.6359 93.2526 58.6359C92.6202 58.6359 92.383 58.6153 92.3613 58.5586Z" fill="#D2B589"/>
<path fill-rule="evenodd" clip-rule="evenodd" d="M98.7364 58.5604C98.7198 58.5169 98.7134 56.5181 98.7222 54.1184L98.7382 49.7555L99.5802 49.7383C100.233 49.725 100.438 49.7401 100.492 49.8058C100.542 49.8655 100.567 50.7172 100.579 52.7006L100.595 55.5109H100.797C100.993 55.5109 101.049 55.4375 102.971 52.6332L104.943 49.7555H105.894H106.845V54.1803V58.6052L105.963 58.6223C105.478 58.6318 105.075 58.6318 105.068 58.6223C105.06 58.6129 105.039 57.3271 105.021 55.7651C104.991 53.1484 104.98 52.9197 104.88 52.8568C104.803 52.8078 104.742 52.8074 104.664 52.8552C104.604 52.8918 103.678 54.2006 102.606 55.7635L100.656 58.6052L99.7115 58.6223C98.9896 58.6353 98.7594 58.6207 98.7364 58.5604Z" fill="#D2B589"/>
<path fill-rule="evenodd" clip-rule="evenodd" d="M113.789 58.5965C113.765 58.5729 113.746 57.8933 113.746 57.0862C113.746 55.9864 113.726 55.6034 113.668 55.5573C113.626 55.5234 113.048 55.4803 112.384 55.4615C110.635 55.4119 109.909 55.1929 109.319 54.5366C108.85 54.0154 108.826 53.872 108.826 51.6739V49.7554L109.653 49.7381C110.21 49.7265 110.508 49.7441 110.565 49.7921C110.634 49.8493 110.651 50.1526 110.651 51.3185C110.651 52.279 110.677 52.8586 110.726 53.0238C110.82 53.3368 111.11 53.632 111.428 53.7391C111.762 53.8512 113.435 53.9087 113.612 53.8142C113.744 53.7433 113.746 53.7264 113.746 51.8079C113.746 50.3855 113.765 49.8534 113.82 49.7988C113.905 49.7139 115.396 49.6937 115.525 49.7758C115.587 49.8148 115.6 50.7441 115.587 54.2152L115.571 58.6052L114.701 58.6223C114.223 58.6317 113.812 58.62 113.789 58.5965Z" fill="#D2B589"/>
<path fill-rule="evenodd" clip-rule="evenodd" d="M121.101 58.8561C119.595 58.5418 118.417 57.561 117.79 56.0993C117.191 54.7058 117.299 53.191 118.096 51.7669C118.474 51.0927 119.259 50.3231 119.917 49.9835C121.127 49.3578 122.524 49.2659 123.792 49.7285C124.843 50.1123 125.712 50.8961 126.205 51.9062C126.597 52.7103 126.702 53.177 126.707 54.1495L126.711 54.9541L123.135 54.985C119.33 55.0179 119.443 55.0083 119.44 55.3C119.438 55.4987 119.815 56.1429 120.103 56.4319C120.768 57.1011 121.73 57.3483 122.791 57.1233C123.275 57.0208 123.503 56.9136 123.932 56.5867L124.247 56.3465H125.177C126.322 56.3465 126.356 56.3669 126.037 56.8651C125.447 57.7889 124.55 58.4472 123.451 58.7639C122.866 58.9325 121.689 58.9787 121.101 58.8561ZM124.687 53.3017C124.799 53.1902 124.779 53.0734 124.578 52.6482C124.267 51.9907 123.635 51.4685 122.917 51.275C122.771 51.2358 122.423 51.2038 122.144 51.2039C121.271 51.2042 120.559 51.5036 120.006 52.1033C119.574 52.5725 119.305 53.2495 119.517 53.335C119.559 53.3521 120.723 53.3684 122.103 53.3711C123.978 53.3747 124.632 53.3572 124.687 53.3017Z" fill="#D2B589"/>
<path fill-rule="evenodd" clip-rule="evenodd" d="M131.86 58.8259C131.532 58.7546 131.077 58.5913 130.717 58.4162C130.203 58.1662 130.04 58.0456 129.56 57.5607C129.146 57.1429 128.933 56.8675 128.742 56.5011C127.782 54.6665 127.959 52.7065 129.228 51.1046C129.799 50.3841 130.781 49.7917 131.785 49.5614C132.551 49.3859 133.663 49.4148 134.383 49.6288C135.645 50.0039 136.57 50.7616 137.143 51.8892C137.249 52.0975 137.32 52.3083 137.301 52.3577C137.273 52.431 137.086 52.4476 136.286 52.4476H135.306L135.005 52.0992C134.436 51.4402 133.889 51.2055 132.92 51.2053C131.658 51.205 130.773 51.746 130.275 52.8224C129.741 53.9769 130.009 55.602 130.868 56.4196C131.176 56.7125 131.754 57.0171 132.19 57.1163C133.298 57.3682 134.29 57.0961 134.992 56.3475L135.342 55.9751H136.236C137.399 55.9751 137.422 55.9918 137.093 56.6144C136.769 57.229 135.902 58.0999 135.313 58.4018C134.571 58.7821 134.113 58.8952 133.209 58.9213C132.58 58.9395 132.286 58.9187 131.86 58.8259Z" fill="#D2B589"/>
<path fill-rule="evenodd" clip-rule="evenodd" d="M139.281 58.5399C139.26 58.4851 139.243 56.5127 139.243 54.1567C139.243 50.9075 139.261 49.8551 139.317 49.7988C139.402 49.7139 140.893 49.6937 141.022 49.7758C141.084 49.8148 141.097 50.7441 141.084 54.2152L141.068 58.6052L140.194 58.6223C139.437 58.6371 139.314 58.626 139.281 58.5399Z" fill="#D2B589"/>
<path fill-rule="evenodd" clip-rule="evenodd" d="M144.646 58.497C144.481 58.3143 141.347 54.1293 141.347 54.0909C141.347 54.045 144.639 49.8232 144.714 49.772C144.751 49.747 145.175 49.7261 145.656 49.7256C146.347 49.7249 146.546 49.7436 146.605 49.8148C146.646 49.8646 146.658 49.9402 146.631 49.9839C146.604 50.0274 145.864 50.907 144.986 51.9387C144.108 52.9704 143.389 53.8533 143.389 53.9007C143.389 53.9871 143.673 54.3619 145.006 56.0385C146.645 58.0988 146.911 58.4553 146.877 58.5449C146.848 58.6204 146.662 58.6362 145.807 58.6362C144.813 58.6362 144.767 58.6308 144.646 58.497Z" fill="#D2B589"/>
<path fill-rule="evenodd" clip-rule="evenodd" d="M151.929 58.8501C151.708 58.8031 151.263 58.632 150.939 58.47C149.429 57.7132 148.526 56.1552 148.526 54.3055C148.526 52.8112 148.972 51.6784 149.943 50.7112C150.823 49.8348 151.707 49.4616 152.92 49.4537C154.005 49.4467 154.833 49.7996 155.492 50.5503C155.981 51.1089 156.2 51.0104 156.2 50.2303C156.2 49.8947 156.221 49.7914 156.297 49.7621C156.351 49.7415 156.696 49.7246 157.063 49.7246C157.551 49.7246 157.75 49.7473 157.801 49.8088C157.852 49.87 157.867 51.0826 157.855 54.2491L157.839 58.6052H157.035H156.23L156.212 58.1438C156.181 57.3751 156.01 57.3337 155.371 57.9399C154.459 58.8053 153.237 59.1285 151.929 58.8501ZM153.922 57.1438C154.713 56.9774 155.437 56.4377 155.765 55.7691C156.476 54.3209 156.106 52.4804 154.941 51.6785C154.082 51.0868 152.723 51.0365 151.813 51.5626C150.94 52.0674 150.468 52.901 150.401 54.0566C150.346 54.9875 150.58 55.707 151.131 56.3102C151.78 57.0204 152.908 57.3572 153.922 57.1438Z" fill="#D2B589"/>
<path fill-rule="evenodd" clip-rule="evenodd" d="M159.979 58.5491C159.921 58.4785 160.112 58.2213 160.981 57.203C161.572 56.5107 162.105 55.8695 162.164 55.7782C162.301 55.5694 162.221 55.3879 161.971 55.3378C161.066 55.1569 160.333 54.5151 160.032 53.6418C159.489 52.0643 160.282 50.4705 161.893 49.9016C162.277 49.7659 162.391 49.7586 164.453 49.7372C165.639 49.7248 166.677 49.7315 166.758 49.7519L166.907 49.7891L166.891 54.1972L166.875 58.6053H165.977H165.08L165.049 56.972C165.021 55.504 165.007 55.3318 164.91 55.2704C164.833 55.2217 164.771 55.2211 164.693 55.2684C164.634 55.3048 164.014 56.0764 163.316 56.9831L162.048 58.6316L161.05 58.6339C160.265 58.6357 160.036 58.6176 159.979 58.5491ZM164.929 53.9926C165.042 53.9326 165.049 53.8513 165.049 52.7006C165.049 51.6956 165.033 51.4589 164.958 51.3971C164.892 51.342 164.568 51.3274 163.762 51.3431L162.657 51.3646L162.353 51.5525C161.994 51.7744 161.791 52.1011 161.735 52.5435C161.652 53.2075 161.964 53.7247 162.574 53.9354C162.849 54.0301 163.096 54.053 163.862 54.0546C164.401 54.0558 164.861 54.029 164.929 53.9926Z" fill="#D2B589"/>
<path fill-rule="evenodd" clip-rule="evenodd" d="M173.035 58.5165C172.946 58.3509 172.946 50.0099 173.035 49.8443C173.093 49.7351 173.172 49.7246 173.93 49.7246C174.688 49.7246 174.767 49.7351 174.825 49.8443C174.923 50.0271 174.913 58.4638 174.815 58.5619C174.765 58.6122 174.476 58.6362 173.92 58.6362C173.171 58.6362 173.093 58.6256 173.035 58.5165Z" fill="#D2B589"/>
<path fill-rule="evenodd" clip-rule="evenodd" d="M176.813 56.4127C175.891 55.1883 175.136 54.145 175.136 54.0942C175.136 54.0434 175.882 53.0464 176.792 51.8786L178.448 49.7554H179.406C180.265 49.7554 180.366 49.7665 180.385 49.8623C180.398 49.9298 179.811 50.6684 178.792 51.8675C177.689 53.1649 177.179 53.8113 177.179 53.9096C177.179 54.0048 177.765 54.7924 178.912 56.2364C179.865 57.4371 180.638 58.4612 180.629 58.5122C180.615 58.5897 180.436 58.6079 179.551 58.622L178.49 58.6389L176.813 56.4127Z" fill="#D2B589"/>
<path fill-rule="evenodd" clip-rule="evenodd" d="M182.093 58.5509C182.062 58.4694 185.478 49.9769 185.613 49.8021C185.697 49.6929 187.288 49.6929 187.375 49.8021C187.511 49.9731 190.928 58.458 190.895 58.5439C190.866 58.6204 190.694 58.6363 189.905 58.6363H188.951L188.858 58.404C188.806 58.2762 188.313 56.9464 187.761 55.4489C187.21 53.9514 186.73 52.6914 186.695 52.6489C186.614 52.5491 186.36 52.5489 186.295 52.6486C186.268 52.691 185.755 54.0486 185.156 55.6655L184.067 58.6054L183.097 58.6224C182.301 58.6364 182.121 58.6236 182.093 58.5509Z" fill="#D2B589"/>
<path fill-rule="evenodd" clip-rule="evenodd" d="M235.542 58.8227C234.716 58.5991 234.208 58.3023 233.586 57.6795C232.949 57.0424 232.601 56.4368 232.373 55.5729C232.185 54.8622 232.185 53.7335 232.372 52.9737C232.847 51.0428 234.298 49.7032 236.17 49.4666C237.329 49.3202 238.323 49.654 239.102 50.451C239.706 51.0701 239.869 51.0472 239.869 50.343C239.869 49.7276 239.885 49.7172 240.768 49.7381L241.509 49.7557V54.1805V58.6054L240.776 58.6229C240.287 58.6345 240.013 58.6164 239.956 58.5689C239.896 58.5196 239.869 58.3556 239.869 58.042C239.869 57.6076 239.862 57.5848 239.714 57.5477C239.585 57.5152 239.493 57.5709 239.159 57.8835C238.391 58.6017 237.716 58.8847 236.682 58.9223C236.137 58.9422 235.91 58.9223 235.542 58.8227ZM237.586 57.1498C238.088 57.0547 238.656 56.7615 238.987 56.4274C239.556 55.8528 239.813 55.152 239.811 54.1805C239.81 53.2523 239.588 52.6317 239.044 52.035C238.073 50.9704 236.15 50.9048 235.071 51.8995C234.507 52.4194 234.223 52.9963 234.115 53.8401C233.845 55.9535 235.512 57.5431 237.586 57.1498Z" fill="#D2B589"/>
<defs>
<filter id="filter0_d_231_852" x="79.8623" y="1.68799" width="47.593" height="46.73" filterUnits="userSpaceOnUse" color-interpolation-filters="sRGB">
<feFlood flood-opacity="0" result="BackgroundImageFix"/>
<feColorMatrix in="SourceAlpha" type="matrix" values="0 0 0 0 0 0 0 0 0 0 0 0 0 0 0 0 0 0 127 0" result="hardAlpha"/>
<feOffset dy="4"/>
<feGaussianBlur stdDeviation="2"/>
<feComposite in2="hardAlpha" operator="out"/>
<feColorMatrix type="matrix" values="0 0 0 0 0 0 0 0 0 0 0 0 0 0 0 0 0 0 0.25 0"/>
<feBlend mode="normal" in2="BackgroundImageFix" result="effect1_dropShadow_231_852"/>
<feBlend mode="normal" in="SourceGraphic" in2="effect1_dropShadow_231_852" result="shape"/>
</filter>
</defs>
</svg>
